<?xml version="1.0" encoding="UTF-8" ?>
<!DOCTYPE svg PUBLIC "-//W3C//DTD SVG 1.1//EN" "http://www.w3.org/Graphics/SVG/1.1/DTD/svg11.dtd">
<svg width="123pt" height="42pt" viewBox="0 0 821 283" version="1.1" xmlns="http://www.w3.org/2000/svg">
<g id="#ffffffff">
<path fill="#ffffff" opacity="1.00" d=" M 56.71 28.72 C 78.16 12.64 104.30 2.89 131.03 0.99 C 141.36 0.68 151.77 0.40 162.00 2.11 C 191.27 6.27 219.23 19.87 240.27 40.68 C 265.23 64.37 280.55 97.71 283.01 131.95 C 283.06 143.09 283.57 154.31 281.36 165.30 C 275.19 203.27 252.48 238.07 220.43 259.29 C 200.36 272.87 176.71 280.66 152.66 283.00 L 130.44 283.00 C 126.01 282.12 121.48 282.00 117.06 281.08 C 89.24 276.28 63.07 262.80 42.74 243.25 C 27.09 228.02 14.92 209.17 7.73 188.53 C 3.53 176.99 1.40 164.86 0.00 152.71 L 0.00 130.63 C 1.75 117.00 4.32 103.36 9.51 90.57 C 19.01 66.05 35.66 44.43 56.71 28.72 M 121.53 5.62 C 96.74 9.14 73.05 19.79 53.78 35.76 C 25.31 59.09 7.03 94.40 4.34 131.10 C 2.75 151.59 5.86 172.40 13.23 191.61 C 13.93 193.25 14.57 194.92 15.24 196.58 C 27.81 225.49 50.49 249.94 78.61 264.25 C 79.55 264.75 80.48 265.25 81.41 265.76 C 84.40 267.16 87.44 268.43 90.47 269.74 C 122.90 282.70 160.17 282.71 192.60 269.77 C 194.93 268.77 197.26 267.80 199.57 266.75 C 200.09 266.50 201.13 265.98 201.65 265.73 C 202.96 265.04 204.28 264.37 205.61 263.73 C 206.10 263.48 207.07 262.99 207.55 262.74 C 209.24 261.72 210.94 260.71 212.67 259.76 C 230.57 248.92 245.98 234.01 257.28 216.39 C 261.76 209.48 265.54 202.14 268.76 194.57 C 269.36 192.86 270.01 191.16 270.75 189.51 C 275.35 176.79 278.08 163.44 279.01 149.98 C 278.73 142.51 279.65 134.94 278.35 127.55 C 277.00 112.67 272.92 98.06 266.75 84.45 C 265.47 81.75 264.09 79.10 262.75 76.43 C 244.41 42.10 210.86 16.38 172.89 7.74 C 160.46 4.95 147.66 3.56 134.92 4.15 C 130.48 4.93 125.95 4.75 121.53 5.62 Z" />
<path fill="#ffffff" opacity="1.00" d=" M 52.00 40.94 C 76.97 18.67 110.49 6.07 143.97 7.00 C 179.38 7.26 214.30 22.69 238.75 48.25 C 248.47 58.30 256.49 69.94 262.73 82.44 C 281.05 119.37 281.03 164.58 262.70 201.50 C 252.03 222.98 235.77 241.67 215.63 254.75 C 212.35 256.84 209.04 258.88 205.62 260.75 C 202.94 262.08 200.27 263.45 197.56 264.75 C 195.25 265.81 192.88 266.74 190.54 267.74 C 178.47 272.30 165.78 275.52 152.89 276.29 C 144.32 277.60 135.54 277.10 126.97 276.02 C 111.90 274.58 97.12 270.21 83.42 263.76 C 82.46 263.25 81.51 262.75 80.56 262.25 C 79.52 261.76 78.50 261.24 77.47 260.76 C 57.09 249.62 39.57 233.35 27.25 213.65 C 26.40 212.23 25.53 210.83 24.72 209.39 C 21.87 204.62 19.54 199.59 17.25 194.55 C 16.61 192.86 15.98 191.18 15.26 189.53 C 11.33 179.03 8.72 168.05 7.43 156.93 C 6.50 148.65 6.95 140.26 6.99 131.93 C 9.49 97.35 25.92 63.86 52.00 40.94 M 93.00 22.78 C 92.88 25.50 94.12 28.00 94.70 30.60 C 93.70 31.29 92.71 31.98 91.72 32.68 C 92.82 33.19 93.92 33.70 95.03 34.20 C 95.16 36.36 94.09 39.02 96.06 40.63 L 95.97 38.61 C 96.97 39.57 97.97 40.54 98.97 41.51 C 98.72 41.87 98.24 42.59 98.00 42.95 C 99.10 42.79 101.30 42.47 102.40 42.31 C 101.92 43.88 100.57 44.90 99.61 46.15 C 101.00 46.04 102.40 45.91 103.79 45.76 C 103.99 46.36 104.39 47.57 104.58 48.17 C 106.03 46.71 105.66 44.41 107.09 42.92 C 105.96 42.59 104.84 42.25 103.72 41.90 C 104.03 41.48 104.66 40.63 104.97 40.21 C 102.14 39.37 103.67 37.08 104.10 35.15 C 105.39 34.16 106.96 33.82 108.57 33.92 C 109.35 37.62 111.81 40.87 112.01 44.67 C 111.56 44.89 110.66 45.33 110.21 45.55 C 111.22 47.02 113.55 49.46 114.95 46.96 C 115.86 42.26 114.15 37.80 112.32 33.57 C 111.74 32.10 110.67 30.97 109.36 30.11 C 104.89 31.60 101.27 34.82 96.83 36.32 C 97.24 34.99 97.60 33.61 98.26 32.37 C 100.05 31.27 102.20 30.12 102.43 27.78 C 100.73 27.45 99.10 28.05 97.48 28.44 C 96.96 26.03 96.01 22.84 93.00 22.78 M 184.34 22.85 C 183.20 25.32 182.05 27.78 181.00 30.29 C 179.10 30.19 174.05 28.39 174.84 31.94 C 174.59 34.11 179.19 32.19 177.88 34.60 C 175.43 38.42 171.38 40.59 167.56 42.78 C 166.08 43.47 164.58 44.13 163.06 44.73 C 166.21 45.78 169.63 44.83 172.55 43.49 C 175.33 41.98 177.05 39.09 179.81 37.55 C 179.80 40.99 180.57 44.34 181.43 47.66 C 182.40 49.38 184.01 50.59 185.36 51.99 C 186.09 52.01 187.55 52.04 188.28 52.05 C 187.70 50.00 186.42 48.25 185.21 46.53 C 183.77 42.71 181.75 38.98 181.73 34.80 C 183.69 35.29 185.63 35.93 187.66 36.14 C 188.05 35.58 188.85 34.47 189.24 33.91 C 188.52 33.27 187.79 32.63 187.06 32.00 C 186.22 31.97 184.55 31.92 183.71 31.90 C 183.76 29.11 185.01 26.55 186.11 24.04 C 185.67 23.74 184.78 23.15 184.34 22.85 M 92.00 40.58 C 92.67 44.90 94.02 49.09 95.88 53.05 C 96.30 54.53 97.77 55.15 99.11 55.53 C 99.35 50.48 96.00 46.18 94.05 41.73 C 94.23 41.10 94.58 39.83 94.75 39.20 L 92.00 40.58 M 125.12 53.86 C 99.17 58.46 75.99 75.43 63.23 98.42 C 62.73 99.46 62.21 100.48 61.72 101.51 C 61.22 102.47 60.72 103.43 60.22 104.39 C 50.08 126.30 49.41 152.10 58.25 174.53 C 66.23 194.81 81.84 211.98 101.31 221.77 C 102.69 222.41 104.06 223.07 105.41 223.76 C 128.11 233.76 154.96 233.82 177.66 223.78 C 180.61 222.36 183.58 220.95 186.42 219.30 C 200.87 210.88 212.89 198.34 220.75 183.58 C 221.39 182.23 222.06 180.89 222.76 179.57 C 233.11 157.10 233.91 130.42 224.26 107.58 C 216.40 88.48 201.76 72.29 183.44 62.72 C 182.49 62.22 181.55 61.73 180.60 61.23 C 163.49 53.02 143.77 50.25 125.12 53.86 M 39.19 63.42 C 39.21 65.36 37.84 66.72 36.78 68.17 C 38.91 68.38 40.02 66.50 41.53 65.41 C 43.17 66.58 45.21 67.93 45.21 70.20 C 43.73 69.47 41.88 66.93 40.80 69.42 C 41.84 70.35 42.79 71.35 43.74 72.37 C 45.06 74.16 46.40 72.22 46.35 70.67 C 47.59 72.19 48.03 74.36 49.88 75.31 C 49.92 74.48 50.00 72.83 50.04 72.00 C 50.75 72.00 52.16 72.01 52.87 72.01 C 54.50 70.07 57.48 67.64 55.22 65.00 C 54.49 65.07 53.03 65.23 52.30 65.31 C 53.28 66.69 53.55 69.14 51.44 69.62 C 49.87 69.45 48.62 68.53 47.78 67.24 C 48.11 66.75 48.77 65.77 49.10 65.28 C 48.49 64.94 47.26 64.26 46.65 63.92 C 46.44 64.44 46.01 65.48 45.79 66.01 C 44.71 65.17 43.76 64.08 42.39 63.71 C 42.57 63.01 42.94 61.61 43.13 60.91 C 41.18 60.30 40.31 62.27 39.19 63.42 M 235.66 74.19 C 234.62 73.15 233.57 72.11 232.64 70.97 C 231.13 70.51 229.49 70.21 228.06 71.10 C 225.68 71.78 227.38 75.91 229.55 74.89 C 230.54 74.12 232.07 71.82 233.23 73.69 C 236.16 77.31 238.99 81.06 241.17 85.18 C 241.15 85.79 241.11 87.02 241.09 87.63 C 241.91 88.93 242.94 91.15 244.80 89.89 C 244.17 86.61 243.69 82.48 240.41 80.77 C 242.34 79.29 244.59 81.13 246.43 81.91 C 247.51 81.96 248.60 81.99 249.70 82.02 C 250.05 81.37 250.75 80.08 251.10 79.44 C 252.37 79.84 253.66 80.11 254.99 80.23 C 254.05 78.75 254.41 77.51 256.06 76.51 C 256.20 75.30 255.60 74.36 254.58 73.76 C 254.04 74.30 252.96 75.39 252.42 75.93 C 251.23 75.21 250.07 74.45 248.95 73.64 C 248.62 71.74 252.51 70.36 250.01 68.82 C 248.28 68.60 246.95 70.66 245.35 71.30 C 242.63 73.10 239.98 75.92 236.58 75.99 C 239.40 73.62 243.28 72.63 245.81 69.74 C 246.17 68.78 246.55 67.83 246.95 66.89 C 242.09 66.33 238.60 70.90 235.66 74.19 M 32.53 72.94 C 31.76 74.72 30.66 76.34 29.75 78.05 C 32.51 78.67 34.61 76.12 35.77 73.98 C 36.23 74.36 36.68 74.74 37.14 75.13 C 36.31 76.93 35.02 78.22 33.00 78.52 C 37.14 80.78 41.16 83.56 44.35 87.03 C 45.09 87.04 46.56 87.06 47.29 87.07 C 47.09 84.82 46.34 82.70 45.47 80.64 C 44.73 81.34 44.17 82.18 43.78 83.14 C 42.76 82.88 41.80 82.45 40.90 81.84 C 41.64 80.46 42.32 79.06 43.01 77.67 C 41.84 73.90 38.65 71.27 35.07 69.97 C 33.39 69.60 33.18 71.92 32.53 72.94 M 54.30 73.83 C 52.55 75.85 51.18 78.15 49.56 80.27 C 51.16 81.66 52.78 79.21 53.36 77.91 C 56.03 77.38 58.01 79.65 60.13 80.85 C 62.46 81.69 61.34 78.38 60.78 77.38 C 59.20 76.50 57.81 75.33 56.49 74.10 C 55.94 74.03 54.85 73.89 54.30 73.83 M 42.93 79.85 C 44.34 79.94 45.75 80.00 47.17 80.04 C 47.03 79.34 46.76 77.94 46.63 77.24 C 44.89 76.85 43.85 78.70 42.93 79.85 M 233.96 78.74 C 233.46 80.36 234.24 81.73 235.15 83.00 C 233.77 82.81 232.46 83.05 231.31 83.86 C 229.88 82.39 228.67 80.68 226.93 79.54 C 226.66 81.87 227.93 83.83 228.98 85.77 C 227.03 87.05 223.84 88.69 222.32 85.96 C 220.49 87.28 220.23 89.69 222.02 91.15 C 225.17 91.44 227.65 89.47 230.15 88.00 C 231.16 89.37 232.37 90.44 234.23 90.14 C 233.85 88.00 232.45 86.02 233.02 83.76 C 234.68 84.37 236.34 85.06 238.13 85.26 C 238.10 84.53 238.03 83.06 238.00 82.33 C 236.98 80.80 236.00 78.97 233.96 78.74 M 55.32 79.43 C 54.92 80.78 54.43 82.11 53.87 83.42 C 53.15 83.25 51.71 82.91 50.99 82.74 L 52.15 82.17 C 51.32 81.90 49.66 81.37 48.83 81.11 C 50.17 84.60 53.72 87.73 57.58 88.14 C 58.30 85.99 59.11 83.86 59.80 81.70 C 57.97 82.01 57.55 83.98 56.66 85.30 C 55.98 84.65 55.30 83.99 54.64 83.32 C 55.22 83.37 56.39 83.48 56.97 83.54 C 56.90 81.91 57.65 79.68 55.32 79.43 M 62.60 85.47 C 61.22 88.01 58.27 90.06 58.78 93.27 C 59.82 92.88 60.83 92.43 61.81 91.91 C 62.82 89.17 64.81 86.95 66.33 84.48 C 67.38 83.06 67.98 81.40 68.12 79.64 C 65.02 79.95 64.22 83.36 62.60 85.47 M 26.76 139.83 C 25.30 141.40 26.48 143.23 27.21 144.80 C 29.54 146.69 32.22 145.93 34.02 143.75 C 34.04 142.42 34.05 141.08 34.07 139.75 C 32.39 137.39 28.15 136.97 26.76 139.83 M 250.70 138.66 C 248.20 141.55 250.56 146.47 254.46 146.05 C 255.01 145.67 256.10 144.92 256.65 144.55 C 257.06 143.65 257.47 142.75 257.90 141.86 C 257.44 138.36 253.59 136.63 250.70 138.66 M 24.81 178.06 C 25.28 176.70 25.82 175.37 26.27 174.01 C 25.69 174.03 24.53 174.05 23.95 174.06 C 23.95 175.23 24.00 176.39 24.10 177.55 C 24.96 178.92 26.67 179.19 28.03 179.83 C 31.91 178.82 35.75 177.64 39.52 176.26 C 40.66 175.42 41.85 176.38 42.92 176.78 C 42.48 175.54 41.99 174.32 41.49 173.11 C 36.12 175.21 30.63 177.83 24.81 178.06 M 242.47 173.02 C 242.31 173.64 241.99 174.87 241.84 175.48 C 245.35 176.36 246.90 180.01 248.64 182.81 C 245.18 183.20 241.86 184.51 238.33 183.87 C 237.96 185.33 237.46 186.75 236.88 188.13 C 239.53 186.21 242.86 186.07 245.92 185.24 C 249.48 184.25 253.57 185.45 255.90 188.36 C 255.90 186.74 256.43 185.24 257.20 183.84 C 255.01 185.50 252.52 183.46 250.36 182.76 C 247.04 180.15 245.51 175.90 242.47 173.02 M 39.36 187.25 C 36.46 188.54 33.58 189.88 30.63 191.04 C 26.81 187.65 30.35 192.80 31.31 193.73 C 32.57 192.73 33.96 191.90 35.42 191.22 C 39.29 190.16 42.88 186.64 46.94 187.43 C 46.62 186.58 45.98 184.87 45.65 184.02 C 43.66 185.29 41.54 186.33 39.36 187.25 M 49.39 192.32 C 49.40 193.51 49.40 194.70 49.40 195.89 C 47.06 197.39 44.71 198.86 42.33 200.28 C 40.25 201.52 38.37 203.61 35.69 202.96 C 36.31 203.89 36.91 204.84 37.46 205.82 C 37.95 203.77 39.81 202.67 41.51 201.71 C 42.58 201.05 43.64 200.38 44.70 199.71 C 46.00 198.87 47.39 198.16 48.78 197.47 C 46.83 203.39 44.82 209.29 42.78 215.18 C 44.00 214.20 47.91 213.57 46.23 211.40 C 47.84 205.86 50.58 200.60 51.30 194.85 C 50.60 194.05 49.97 193.20 49.39 192.32 M 233.22 194.25 C 231.58 197.51 229.27 200.38 227.60 203.63 C 228.29 204.05 229.68 204.91 230.37 205.34 C 230.02 204.87 229.32 203.93 228.96 203.47 C 229.64 201.93 230.17 200.31 231.24 198.99 C 234.38 200.80 237.40 202.79 240.47 204.71 C 242.25 205.59 243.81 206.85 244.78 208.61 C 245.52 207.37 246.32 206.17 247.16 204.99 C 246.52 204.98 245.22 204.95 244.57 204.93 C 243.27 203.99 241.91 203.13 240.56 202.26 C 239.16 201.45 237.81 200.55 236.43 199.71 C 235.26 198.96 234.05 198.27 232.82 197.63 C 232.72 194.86 235.25 193.44 237.09 191.87 C 235.22 191.54 234.02 192.73 233.22 194.25 M 48.39 210.33 C 51.16 211.83 53.16 208.16 55.49 207.21 C 57.04 207.10 58.29 206.59 58.09 204.75 C 54.68 206.31 52.09 209.34 48.39 210.33 M 221.23 211.16 C 222.51 211.68 223.83 212.16 224.75 213.25 C 227.84 216.42 231.59 218.83 234.61 222.08 C 235.50 221.07 236.35 220.04 237.23 219.02 C 236.77 219.14 235.85 219.38 235.39 219.50 C 231.89 216.74 228.35 213.99 225.22 210.81 C 224.31 210.02 223.79 209.02 223.67 207.81 C 222.87 208.93 222.06 210.05 221.23 211.16 M 62.87 217.20 C 65.11 218.54 63.27 220.80 62.75 222.55 C 62.48 223.23 61.93 224.58 61.66 225.26 C 60.05 224.44 58.01 223.17 58.13 221.11 C 58.90 219.44 60.95 219.11 62.55 218.81 L 62.40 217.75 C 57.85 219.04 53.67 222.73 48.83 222.14 C 49.18 222.54 49.90 223.35 50.26 223.75 C 50.63 224.08 51.37 224.73 51.74 225.06 C 51.33 222.71 54.55 221.17 56.40 221.64 C 58.03 223.53 61.16 224.61 61.10 227.48 C 60.19 228.92 59.36 230.45 57.98 231.50 C 59.26 232.59 60.47 233.74 61.56 235.02 C 60.15 231.76 62.86 228.63 63.74 225.55 C 64.24 224.18 64.76 222.82 65.27 221.46 C 66.07 219.65 66.78 217.79 67.28 215.87 C 65.82 216.36 64.37 216.86 62.87 217.20 M 210.33 221.17 C 209.22 222.88 208.47 225.28 210.19 226.90 C 214.01 232.00 221.61 223.73 224.85 229.60 C 225.38 232.47 222.21 234.06 219.99 234.96 C 218.94 234.53 216.84 233.66 215.79 233.23 C 216.90 234.46 218.11 235.64 219.45 236.64 C 220.77 234.78 223.19 234.31 224.89 232.87 C 226.10 230.71 226.36 228.26 224.94 226.12 C 220.42 222.29 213.12 229.65 209.78 223.87 C 210.74 222.56 211.46 220.90 212.92 220.06 C 214.80 219.79 216.72 219.89 218.30 221.07 C 217.47 220.02 216.62 218.99 215.73 218.01 C 213.98 219.15 211.77 219.62 210.33 221.17 M 76.45 224.99 C 77.40 226.78 77.17 228.82 75.79 230.31 C 73.32 233.76 71.45 237.70 68.40 240.70 C 69.37 241.15 70.34 241.62 71.30 242.11 L 70.10 240.71 C 70.40 240.16 70.99 239.08 71.28 238.53 C 73.41 235.57 75.05 232.26 77.52 229.56 C 78.10 235.75 79.04 241.89 79.37 248.12 C 80.83 246.31 82.07 244.33 83.29 242.36 C 84.13 241.15 84.91 239.92 85.74 238.71 C 86.37 237.67 87.02 236.65 87.69 235.64 C 88.52 234.71 89.37 233.80 90.20 232.88 C 89.74 232.93 88.80 233.04 88.34 233.09 C 85.98 236.74 83.85 240.55 81.11 243.94 C 81.19 240.22 79.84 236.66 79.98 232.94 C 79.68 230.04 79.96 225.92 76.45 224.99 M 193.61 233.69 C 192.60 234.33 191.60 234.97 190.60 235.62 C 194.12 236.72 195.10 240.95 197.25 243.62 C 198.14 244.92 199.00 246.25 199.97 247.50 C 199.95 248.21 199.92 249.62 199.91 250.32 C 201.15 249.42 202.43 248.59 203.72 247.75 C 201.58 246.72 200.29 244.71 199.26 242.66 C 197.54 239.80 195.35 237.24 193.82 234.26 C 195.15 233.45 196.53 232.71 197.92 232.00 C 198.59 232.36 199.93 233.08 200.60 233.45 C 202.60 235.45 202.03 238.12 199.87 239.74 C 201.55 241.00 203.60 241.55 205.55 242.25 C 206.93 242.83 208.32 243.37 209.68 243.99 C 210.56 243.37 211.44 242.76 212.32 242.14 C 209.91 242.14 207.68 241.25 205.51 240.30 C 204.23 239.88 202.99 239.32 201.88 238.55 C 203.42 237.19 204.92 234.79 203.26 232.91 C 201.09 228.96 196.23 231.74 193.61 233.69 M 181.73 239.76 C 183.04 240.19 184.47 240.27 185.82 240.56 C 185.85 239.67 185.52 238.91 184.84 238.28 C 183.84 238.40 181.97 238.67 181.73 239.76 M 99.79 238.76 C 99.39 243.38 96.99 247.50 95.98 251.99 C 95.61 254.82 98.04 256.79 100.31 257.93 C 102.79 258.35 105.96 258.98 107.84 256.80 C 109.87 253.26 110.77 249.21 112.22 245.42 C 112.69 244.65 113.16 243.88 113.62 243.11 C 113.06 243.07 111.94 242.98 111.38 242.93 C 111.54 247.30 109.11 251.40 107.74 255.49 C 105.43 259.45 100.08 257.83 97.88 254.61 C 98.59 249.57 100.05 244.36 102.87 240.09 C 101.85 239.64 100.82 239.19 99.79 238.76 M 179.20 240.10 C 179.40 243.35 182.20 238.57 179.20 240.10 M 173.95 242.13 C 174.90 243.15 175.74 244.26 176.32 245.53 C 176.98 247.20 177.63 248.87 178.26 250.55 C 178.83 253.34 182.36 256.49 179.84 259.11 C 181.74 257.98 183.84 257.22 185.98 256.68 L 185.88 255.89 C 185.21 256.11 183.88 256.54 183.21 256.76 C 182.70 255.67 182.20 254.58 181.71 253.48 C 181.02 251.88 180.46 250.22 179.91 248.57 L 182.06 249.12 L 182.28 247.89 C 178.34 250.01 178.69 244.01 176.90 241.97 L 178.26 242.02 L 178.19 240.84 C 176.88 241.58 175.46 242.05 173.95 242.13 M 165.86 244.86 C 167.99 246.91 165.25 249.45 166.13 251.90 C 167.39 249.27 167.01 246.05 169.18 243.75 C 168.07 244.10 166.96 244.47 165.86 244.86 M 182.66 248.03 C 184.24 247.37 185.79 247.38 187.30 248.06 C 187.14 247.64 186.83 246.79 186.67 246.37 L 185.41 245.65 C 185.50 245.21 185.66 244.34 185.74 243.90 C 185.45 245.80 184.43 247.24 182.66 248.03 M 118.82 244.93 C 119.57 245.76 120.32 246.59 121.08 247.42 C 119.71 252.21 120.06 257.34 118.26 262.04 C 119.10 262.33 119.94 262.63 120.77 262.94 C 118.53 258.42 122.00 253.44 121.02 248.67 C 124.22 251.67 125.86 255.89 128.29 259.49 C 128.96 260.58 129.60 261.69 130.21 262.82 C 130.65 263.12 131.53 263.74 131.97 264.04 C 131.97 262.53 131.98 261.02 131.97 259.52 C 131.57 259.36 130.76 259.03 130.36 258.87 C 127.72 254.76 125.33 250.49 122.75 246.35 C 122.08 244.69 120.23 245.03 118.82 244.93 M 152.56 247.18 C 154.34 248.58 155.52 250.51 156.74 252.38 C 158.96 256.02 161.66 259.37 163.57 263.20 C 164.54 259.44 166.58 255.40 165.37 251.57 C 164.94 254.20 165.20 257.07 163.44 259.29 C 161.65 255.05 157.92 251.83 156.55 247.44 C 156.79 247.04 157.27 246.25 157.52 245.85 C 155.89 246.38 154.24 246.85 152.56 247.18 M 132.60 246.99 C 133.78 250.84 130.86 254.63 132.58 258.48 C 133.38 254.62 132.10 249.91 135.36 246.92 C 134.67 246.94 133.29 246.97 132.60 246.99 M 141.03 247.01 C 141.64 247.61 142.24 248.22 142.85 248.83 C 142.98 253.77 143.15 258.72 142.90 263.66 C 142.60 263.96 142.00 264.56 141.70 264.86 C 143.32 264.26 145.04 264.24 146.75 264.34 C 146.17 263.83 145.60 263.32 145.03 262.80 C 145.35 257.54 144.23 252.08 145.63 246.96 C 144.10 246.98 142.57 247.00 141.03 247.01 M 186.86 255.19 L 186.70 256.18 C 187.99 255.56 189.34 255.07 190.74 254.75 C 191.13 253.63 191.59 252.50 191.63 251.30 C 189.93 252.56 189.46 255.39 186.86 255.19 Z" />
<path fill="#ffffff" opacity="1.00" d=" M 98.32 37.91 C 99.16 37.50 99.92 36.76 100.95 36.93 C 101.61 38.06 101.04 39.33 100.97 40.52 C 100.13 39.60 99.24 38.73 98.32 37.91 Z" />
<path fill="#ffffff" opacity="1.00" d=" M 789.43 49.18 C 792.66 46.84 795.99 49.70 797.98 52.29 C 798.37 54.75 798.12 57.39 799.12 59.71 C 800.63 61.62 803.34 61.48 805.27 62.77 C 806.82 63.47 805.99 65.35 806.04 66.62 C 804.90 67.67 803.79 68.74 802.67 69.80 C 800.71 70.83 798.56 71.71 797.12 73.45 C 796.91 74.81 797.02 76.20 797.03 77.57 C 798.66 77.92 799.99 78.89 801.06 80.15 C 801.92 85.98 797.87 91.06 793.57 94.43 C 789.59 94.90 787.70 98.69 784.46 100.50 C 782.54 101.62 780.99 103.23 779.64 104.96 C 778.93 104.99 777.51 105.05 776.80 105.08 C 774.65 102.04 778.34 99.25 780.35 97.28 C 781.24 96.14 783.79 95.29 782.73 93.50 C 781.49 90.01 777.75 87.47 778.07 83.51 C 778.37 83.00 778.96 81.97 779.26 81.46 C 780.65 78.63 783.20 76.75 786.13 75.71 C 786.48 73.20 783.55 73.90 781.98 73.72 C 778.85 73.50 776.09 75.21 773.15 75.96 C 772.93 81.98 772.18 88.23 774.22 94.01 C 774.35 96.12 774.57 98.46 773.23 100.26 C 771.95 102.05 772.27 104.48 770.75 106.14 C 779.52 106.16 788.29 106.13 797.06 106.15 C 799.72 106.13 802.23 107.16 804.64 108.19 C 808.51 111.16 813.86 111.69 817.10 115.50 C 817.05 118.33 815.34 121.02 812.42 121.53 C 808.90 123.37 805.09 119.56 801.77 121.82 C 800.52 122.47 799.19 122.95 797.82 123.18 C 797.91 121.12 797.99 119.06 798.05 117.00 C 787.11 115.42 776.02 116.08 765.01 116.08 C 757.18 117.27 749.23 116.96 741.40 118.11 C 738.95 119.84 737.41 122.44 738.03 125.51 C 738.66 126.52 739.30 127.52 739.95 128.53 C 741.69 136.08 729.77 140.47 725.71 134.37 C 724.76 133.26 723.71 132.18 723.18 130.80 C 722.22 124.70 725.98 119.16 729.72 114.72 C 731.42 112.39 734.80 112.22 737.02 113.91 C 738.82 113.01 740.64 112.15 742.43 111.23 C 744.81 110.34 747.23 109.55 749.60 108.59 C 745.46 107.26 744.92 102.76 744.17 99.13 C 743.72 95.38 744.71 91.43 742.96 87.91 C 742.95 81.60 742.63 75.28 742.78 68.96 C 742.91 65.99 745.39 63.94 747.33 61.97 C 748.35 61.98 749.39 62.00 750.45 62.01 C 752.42 66.04 757.40 68.94 756.64 73.98 C 756.06 77.48 758.46 80.51 758.02 83.99 C 757.59 91.19 758.83 98.60 756.80 105.63 C 755.81 106.86 754.68 107.96 753.67 109.16 C 755.70 108.60 760.12 108.22 758.98 105.02 C 757.06 100.36 760.83 95.75 759.95 90.97 C 759.17 86.00 759.66 80.86 758.32 75.99 C 759.25 70.40 759.56 64.59 758.33 59.01 C 757.93 57.20 758.91 55.20 760.44 54.20 C 762.53 52.87 764.53 54.99 766.68 55.15 C 768.64 56.94 771.21 58.96 771.04 61.91 C 771.12 64.15 770.29 68.15 773.69 68.24 C 777.47 64.89 783.63 65.57 786.74 61.51 C 787.05 58.13 785.04 54.79 786.09 51.43 C 787.11 50.56 788.28 49.89 789.43 49.18 Z" />
<path fill="#ffffff" opacity="1.00" d=" M 378.57 58.16 C 382.25 58.14 386.91 57.11 389.27 60.79 C 392.26 63.92 390.21 68.23 390.45 71.99 C 390.84 76.11 391.08 80.24 390.93 84.38 C 389.07 88.48 388.77 93.28 385.15 96.42 C 385.36 98.86 383.32 100.50 381.47 101.67 C 378.39 102.88 375.24 103.87 372.10 104.88 C 370.19 103.99 368.08 103.89 366.02 103.77 C 366.00 107.92 366.01 112.07 366.01 116.23 C 366.66 116.15 367.94 115.98 368.58 115.90 C 370.03 114.90 371.47 113.85 373.09 113.12 C 374.92 112.24 375.71 114.45 376.74 115.48 C 376.14 117.29 376.10 119.29 375.18 120.98 C 373.80 123.00 371.74 124.45 370.35 126.45 C 368.40 129.21 366.70 132.32 363.62 133.99 C 363.03 134.00 361.87 134.03 361.29 134.05 C 358.44 132.54 356.62 129.75 355.40 126.86 C 354.14 122.50 357.70 118.90 358.17 114.78 C 357.90 107.19 357.70 99.55 358.89 92.02 C 358.87 85.46 359.64 78.73 358.20 72.30 C 360.06 72.00 361.86 72.64 363.59 73.27 C 363.85 73.82 364.36 74.91 364.61 75.46 C 364.85 76.78 365.19 78.10 366.13 79.13 C 369.71 77.49 373.97 78.81 377.36 76.81 C 377.32 75.82 377.22 73.86 377.17 72.88 C 374.78 73.18 372.44 73.71 370.05 73.91 C 367.73 73.49 365.77 72.14 363.69 71.15 C 361.18 70.66 358.62 70.48 356.12 69.95 C 354.67 67.62 353.97 64.95 354.13 62.21 C 361.92 59.06 371.30 63.46 378.57 58.16 M 367.19 88.27 C 366.71 90.34 365.87 92.39 366.57 94.52 C 370.06 93.95 374.34 94.43 376.92 91.51 C 377.01 90.05 377.05 88.60 377.03 87.14 C 373.84 88.17 370.54 88.67 367.19 88.27 Z" />
<path fill="#ffffff" opacity="1.00" d=" M 416.42 61.11 C 421.30 60.53 426.16 61.42 430.99 62.06 C 432.13 63.74 432.03 65.77 432.06 67.71 C 430.60 68.90 429.26 70.53 427.26 70.72 C 425.80 71.04 423.91 70.66 423.22 72.35 C 425.47 77.13 423.51 82.41 422.91 87.37 C 425.14 86.06 423.79 81.08 426.50 81.11 C 428.39 84.32 431.03 87.07 432.64 90.45 C 433.40 91.95 432.26 93.45 431.85 94.87 C 429.19 95.00 426.78 96.23 424.34 97.15 C 423.07 98.01 421.89 98.99 420.88 100.13 C 421.18 104.30 422.53 108.58 424.95 111.93 C 427.85 111.94 431.25 112.70 433.66 110.63 C 434.48 109.70 435.08 108.61 435.74 107.58 C 436.32 106.23 437.28 105.11 438.33 104.10 C 438.71 104.41 439.47 105.03 439.85 105.34 C 440.24 106.77 440.67 108.20 441.11 109.63 C 443.37 110.76 445.02 113.02 445.11 115.59 C 442.85 117.95 440.59 120.40 437.62 121.89 C 435.04 122.26 432.43 123.23 429.83 122.52 C 426.00 121.73 422.01 122.27 418.28 120.94 C 417.15 119.56 416.13 118.10 415.16 116.61 C 414.66 115.32 414.13 114.04 413.69 112.74 C 409.63 113.67 406.55 117.25 402.16 117.11 C 401.12 114.64 401.87 112.02 402.17 109.49 C 404.81 106.60 408.18 103.75 408.21 99.47 C 404.92 99.79 401.51 101.07 398.28 99.81 C 398.05 99.22 397.58 98.05 397.35 97.46 C 398.24 95.40 397.98 93.15 397.99 90.98 C 398.95 89.66 400.17 88.50 400.94 87.06 C 401.10 84.44 400.98 81.81 400.99 79.19 C 403.50 77.68 406.43 77.12 408.76 79.29 C 410.55 82.88 408.65 86.48 408.66 90.21 C 409.47 90.15 411.08 90.03 411.89 89.97 C 414.17 84.24 415.00 78.00 414.75 71.87 C 410.97 71.83 407.17 71.56 403.47 70.71 C 400.27 69.76 398.39 66.37 399.09 63.14 C 403.74 62.51 408.38 63.97 413.00 63.05 C 414.55 63.29 415.40 62.01 416.42 61.11 Z" />
<path fill="#ffffff" opacity="1.00" d=" M 513.39 67.00 C 517.97 66.41 523.08 71.17 522.17 76.00 C 521.96 81.01 522.76 86.18 521.14 91.04 C 520.79 92.37 521.28 93.08 522.64 93.17 C 523.20 91.11 524.34 88.85 526.79 88.78 C 527.22 89.86 527.66 90.95 528.10 92.04 C 529.81 92.07 531.52 92.08 533.24 92.06 C 534.55 93.07 535.77 94.18 536.96 95.35 C 538.24 98.60 536.86 102.21 533.52 103.43 C 530.35 103.56 527.20 104.10 524.54 105.94 C 521.81 106.06 519.08 105.89 516.37 106.08 C 514.57 107.41 513.93 109.63 512.59 111.31 C 510.60 113.01 508.47 114.66 507.34 117.09 C 515.94 117.35 524.47 116.55 532.92 115.04 C 540.96 115.57 549.14 112.59 557.01 115.20 C 560.40 116.10 563.59 119.19 563.02 122.96 C 562.77 130.67 563.77 138.37 562.85 146.05 C 561.20 153.16 563.34 160.91 559.28 167.43 C 556.61 172.91 555.74 180.09 549.62 183.00 C 547.67 183.05 545.72 183.05 543.78 183.06 C 542.26 181.85 540.97 180.39 539.98 178.72 C 539.97 178.18 539.95 177.09 539.94 176.55 C 538.92 175.07 537.98 173.54 536.99 172.04 C 537.21 170.82 536.17 168.51 537.98 168.19 C 540.22 168.02 542.47 168.07 544.72 167.90 C 545.20 162.99 548.32 158.10 546.26 153.20 C 544.95 150.20 548.55 147.98 547.84 144.98 C 547.29 138.97 548.24 132.98 548.01 126.97 C 547.68 126.55 547.02 125.71 546.69 125.30 C 541.78 122.95 536.50 125.31 531.40 125.45 C 529.80 129.37 527.40 132.74 524.03 135.32 C 524.41 138.50 528.59 139.83 530.06 142.70 C 528.92 144.26 527.04 144.02 525.35 144.06 C 522.86 145.25 522.51 147.63 524.03 149.80 C 526.54 150.72 528.87 152.03 531.14 153.43 C 530.78 155.17 530.12 156.94 528.51 157.91 C 527.10 158.06 525.69 158.00 524.29 158.03 C 524.01 158.63 523.45 159.83 523.17 160.43 C 522.87 161.67 523.21 163.21 522.22 164.19 C 520.24 166.48 518.66 169.17 516.17 170.97 C 515.62 170.66 514.54 170.05 514.00 169.75 C 514.02 166.12 514.01 162.49 514.00 158.86 C 510.44 158.72 506.81 159.06 503.38 157.91 C 500.88 156.69 498.93 152.76 502.37 151.37 C 506.66 151.03 510.87 150.05 515.01 148.81 C 514.62 147.84 514.24 146.88 513.87 145.92 C 512.22 145.96 510.53 145.98 509.13 146.94 C 507.52 146.99 505.93 147.08 504.34 146.94 C 502.48 144.83 500.88 142.15 500.85 139.24 C 501.95 138.25 503.81 137.79 504.42 136.39 C 501.63 133.87 501.93 130.05 500.67 126.80 C 497.15 127.78 493.71 129.35 489.98 129.13 C 489.67 144.47 490.19 159.82 489.86 175.15 C 489.37 178.16 488.92 181.47 486.74 183.79 C 485.06 185.44 482.50 185.20 480.35 185.06 C 479.54 183.96 478.91 182.76 478.26 181.57 C 477.99 181.08 477.45 180.10 477.18 179.61 C 475.12 175.27 477.00 170.55 476.96 166.01 C 477.14 157.66 476.34 149.10 479.02 141.03 C 480.42 137.27 479.60 133.11 481.22 129.40 C 482.44 125.97 484.28 121.00 488.88 121.99 C 488.96 122.68 489.11 124.04 489.19 124.72 C 489.50 125.06 490.12 125.74 490.43 126.08 C 494.60 122.54 497.42 117.78 499.89 112.98 C 500.91 110.82 502.00 108.61 502.13 106.18 C 499.63 104.15 497.16 102.05 495.10 99.56 C 495.11 98.94 495.14 97.69 495.16 97.06 C 495.86 96.37 496.57 95.68 497.28 94.99 C 500.01 94.96 502.76 95.15 505.49 94.89 C 508.54 93.25 506.14 89.17 507.78 86.66 C 510.39 81.83 508.68 76.15 509.99 70.99 C 509.74 68.82 511.98 68.07 513.39 67.00 M 508.73 125.02 C 509.08 127.78 512.43 128.33 514.04 130.25 C 514.01 131.36 513.99 132.47 513.98 133.58 C 513.32 134.26 512.68 134.95 512.04 135.64 C 512.45 136.01 513.27 136.75 513.68 137.12 C 514.12 135.87 514.61 134.64 515.15 133.42 C 517.44 132.64 519.21 129.86 518.92 127.47 C 518.07 124.90 514.80 127.01 513.60 125.04 C 511.97 124.99 510.35 125.00 508.73 125.02 Z" />
<path fill="#ffffff" opacity="1.00" d=" M 239.17 79.16 C 242.55 78.36 244.49 75.11 247.89 74.43 C 248.56 75.37 249.21 76.34 249.85 77.31 C 248.65 77.17 247.45 77.04 246.25 76.91 C 245.58 77.88 244.92 78.86 244.26 79.84 C 242.62 79.26 240.87 79.35 239.17 79.16 Z" />
<path fill="#ffffff" opacity="1.00" d=" M 154.57 78.74 C 157.92 77.14 161.29 75.58 164.74 74.20 C 166.05 76.96 167.44 79.67 168.76 82.42 C 173.77 93.67 176.89 105.74 177.99 117.99 C 178.29 128.34 178.55 138.81 176.24 148.97 C 174.84 156.37 172.65 163.60 169.71 170.53 C 169.46 171.15 168.96 172.38 168.71 173.00 C 140.13 173.00 111.54 173.00 82.96 173.00 C 80.90 173.01 79.15 171.67 77.43 170.72 C 72.56 167.24 67.56 162.57 66.60 156.40 C 66.80 154.53 69.64 155.82 70.95 155.47 C 72.26 155.55 73.45 155.97 74.54 156.74 C 83.10 161.14 94.10 158.52 100.23 151.25 C 104.81 146.69 106.19 140.08 106.42 133.85 C 107.60 123.36 105.22 112.78 100.65 103.34 C 103.30 102.15 105.93 100.93 108.59 99.75 C 112.22 98.01 115.91 96.40 119.57 94.73 C 123.48 92.81 127.51 91.17 131.43 89.27 C 135.48 87.43 139.53 85.58 143.59 83.75 C 147.21 82.00 150.91 80.43 154.57 78.74 M 117.56 120.01 C 124.72 120.09 131.88 120.02 139.04 120.05 C 139.07 124.00 139.08 127.95 139.03 131.90 C 138.22 131.90 136.60 131.92 135.80 131.92 C 135.57 129.28 135.60 126.63 135.63 123.98 C 129.39 123.96 123.15 123.92 116.91 123.97 C 114.51 123.58 115.11 126.59 114.49 128.04 C 119.99 128.04 125.50 128.04 131.00 128.04 C 131.00 129.33 130.99 130.62 130.99 131.91 C 125.32 131.90 119.65 131.91 113.98 131.91 C 112.61 145.54 123.09 159.32 136.72 161.21 C 136.74 159.54 136.76 157.88 136.80 156.22 C 127.86 153.52 119.86 145.76 119.50 136.03 C 123.33 136.04 127.17 136.05 131.00 136.04 C 131.00 137.24 130.99 138.44 130.99 139.64 C 128.59 139.63 126.20 139.62 123.80 139.65 C 124.59 141.10 125.03 142.84 126.34 143.94 C 130.57 144.14 134.81 143.94 139.04 144.01 C 139.05 144.76 139.06 146.25 139.07 147.00 C 135.58 147.02 132.09 146.94 128.61 147.04 C 131.48 149.74 135.17 151.48 139.03 152.21 C 139.08 155.46 139.04 158.71 139.14 161.95 C 140.99 161.99 142.84 161.97 144.69 161.86 C 144.76 158.66 144.71 155.45 144.79 152.24 C 148.40 151.34 151.86 149.79 154.68 147.31 C 151.40 146.71 148.05 147.09 144.74 147.00 C 144.76 146.25 144.80 144.76 144.82 144.01 C 149.10 143.94 153.39 144.14 157.67 143.94 C 158.83 142.73 159.32 141.08 160.13 139.65 C 157.74 139.63 155.36 139.63 152.98 139.64 C 152.96 138.44 152.95 137.24 152.95 136.05 C 156.75 136.05 160.54 136.04 164.35 136.05 C 163.99 145.76 155.98 153.58 147.01 156.21 C 147.04 157.88 147.07 159.55 147.09 161.22 C 160.85 159.40 171.08 145.54 170.01 131.91 C 164.33 131.90 158.65 131.91 152.97 131.90 C 152.96 130.62 152.95 129.33 152.95 128.04 C 158.39 128.04 163.82 128.05 169.26 128.04 C 168.95 126.67 169.22 124.96 167.92 124.03 C 161.34 123.84 154.74 124.01 148.16 123.97 C 148.15 126.61 148.16 129.26 148.09 131.90 C 147.28 131.90 145.67 131.91 144.86 131.92 C 144.66 127.96 144.70 124.00 144.84 120.04 C 151.99 120.03 159.15 120.08 166.30 120.02 C 163.95 115.47 160.00 111.84 155.65 109.21 C 155.16 108.96 154.16 108.44 153.66 108.19 C 151.51 107.34 149.30 106.69 147.10 105.97 C 147.07 107.86 147.07 109.74 147.12 111.63 C 150.12 112.43 153.30 113.48 155.36 115.94 C 151.86 115.91 148.36 115.90 144.86 115.91 C 144.67 112.58 144.73 109.25 144.76 105.92 C 142.86 105.86 140.97 105.85 139.08 105.91 C 139.06 109.24 139.08 112.57 139.03 115.91 C 135.53 115.89 132.04 115.91 128.55 115.94 C 130.53 113.41 133.77 112.69 136.58 111.48 C 136.89 109.68 136.70 107.84 136.71 106.03 C 128.81 107.85 121.29 112.64 117.56 120.01 Z" />
<path fill="#ffffff" opacity="1.00" d=" M 39.23 76.43 C 41.24 76.83 40.00 81.03 38.09 79.88 C 37.24 78.79 37.80 76.71 39.23 76.43 Z" />
<path fill="#ffffff" opacity="1.00" d=" M 652.31 80.24 C 655.23 77.44 659.19 79.59 661.09 82.45 C 659.36 91.55 660.37 100.80 659.91 109.99 C 666.21 110.61 672.21 108.00 678.53 109.15 C 679.93 109.87 680.95 111.09 681.90 112.32 C 682.34 114.84 683.84 117.72 682.16 120.08 C 679.92 123.26 675.80 124.08 672.21 124.78 C 667.37 125.28 662.48 124.71 657.63 125.25 C 658.25 127.15 660.08 128.25 660.92 130.03 C 662.13 132.50 663.17 135.04 664.19 137.60 C 665.94 140.54 668.55 142.80 670.73 145.41 C 675.90 152.05 680.42 159.51 687.52 164.33 C 689.93 165.93 691.77 168.19 693.76 170.26 C 695.41 171.97 697.89 172.62 699.53 174.36 C 700.38 175.74 700.81 177.34 701.18 178.92 C 700.31 179.55 699.46 180.20 698.61 180.85 C 694.73 182.30 690.27 182.66 686.50 180.71 C 680.13 177.87 672.26 175.53 669.25 168.57 C 667.98 164.27 664.32 161.40 662.38 157.48 C 661.15 155.14 659.92 152.80 658.74 150.43 C 655.89 146.54 654.98 141.80 652.70 137.65 C 650.28 139.47 650.56 142.76 649.20 145.22 C 647.92 147.63 646.58 150.01 645.28 152.41 C 643.13 156.15 640.90 159.83 638.68 163.52 C 635.31 168.64 629.24 170.79 625.26 175.27 C 623.54 177.25 620.70 177.23 618.43 178.19 C 617.95 178.46 616.98 179.00 616.49 179.27 C 612.32 182.18 606.80 185.09 601.75 182.75 C 602.02 180.21 604.70 179.64 606.45 178.35 C 609.68 176.28 611.05 172.05 614.88 170.80 C 615.53 169.46 616.06 168.06 616.76 166.74 C 619.92 165.46 621.69 162.43 624.19 160.27 C 626.06 158.73 626.69 156.19 628.65 154.74 C 630.39 153.52 630.76 151.34 631.60 149.54 C 632.63 146.72 636.59 146.32 637.23 143.15 C 639.00 136.86 642.90 131.37 644.13 124.90 C 640.48 125.13 636.99 126.93 633.28 126.28 C 629.71 124.82 626.30 121.71 626.22 117.62 C 627.88 115.01 630.33 113.06 632.52 110.92 C 634.94 110.91 637.14 112.14 639.58 112.03 C 642.25 109.44 645.99 110.42 649.20 109.30 C 649.96 103.85 650.02 98.36 650.06 92.87 C 651.39 88.77 651.61 84.46 652.31 80.24 Z" />
<path fill="#ffffff" opacity="1.00" d=" M 376.03 106.29 C 377.15 104.45 379.35 104.99 381.15 105.01 C 384.75 105.50 387.63 107.83 390.05 110.38 C 391.19 115.34 385.83 118.86 381.50 119.04 C 379.81 114.75 375.26 111.25 376.03 106.29 Z" />
<path fill="#ffffff" opacity="1.00" d=" M 760.28 124.74 C 762.20 120.75 766.96 119.80 770.96 119.39 C 776.93 119.19 784.18 119.08 788.08 124.48 C 788.69 131.70 780.33 133.43 775.35 136.03 C 776.37 138.34 777.46 140.62 778.35 142.99 C 784.30 142.73 791.20 143.44 795.14 148.49 C 794.65 155.25 786.07 156.42 780.71 156.01 C 781.18 164.58 782.02 173.69 777.80 181.54 C 776.26 184.11 774.40 186.52 771.67 187.89 C 767.71 190.33 762.63 188.41 760.78 184.28 C 759.27 180.31 757.50 176.23 757.98 171.89 C 761.04 171.23 762.24 174.78 765.02 175.10 C 765.64 174.29 766.23 173.45 766.79 172.59 C 767.39 171.22 768.07 169.89 768.79 168.58 C 770.87 164.35 770.36 159.58 769.85 155.07 C 762.38 154.85 753.42 154.90 748.17 148.66 C 748.44 148.04 748.99 146.79 749.26 146.17 C 753.47 145.19 757.76 144.70 762.02 143.98 C 764.68 143.46 767.63 144.21 770.08 142.84 C 769.22 140.42 768.58 137.91 769.05 135.32 C 771.46 133.82 773.88 132.01 774.25 128.95 C 771.06 130.11 767.84 131.48 764.37 131.03 C 763.29 129.88 762.20 128.75 761.15 127.59 C 760.93 126.88 760.50 125.45 760.28 124.74 Z" />
<path fill="#ffffff" opacity="1.00" d=" M 388.53 127.08 C 394.71 126.92 400.92 127.23 407.06 126.27 C 410.68 126.86 414.36 127.18 417.94 128.07 C 419.68 133.33 420.71 139.19 419.62 144.75 C 418.03 148.73 420.08 153.28 418.15 157.17 C 417.13 160.01 414.74 161.97 412.57 163.91 C 410.78 164.19 408.98 164.42 407.18 164.20 C 404.69 160.17 406.16 155.25 406.81 150.93 C 405.90 146.44 405.34 141.88 404.69 137.36 C 404.05 136.52 403.36 135.73 402.64 134.97 C 399.42 134.97 396.20 135.12 393.00 134.94 C 390.42 133.98 387.77 133.26 385.00 133.45 C 384.98 137.64 384.83 141.97 386.20 146.00 C 389.93 145.10 393.86 144.86 397.45 143.33 C 399.07 142.80 401.17 142.16 402.67 143.26 C 403.37 145.31 403.34 147.55 402.91 149.66 C 401.27 151.25 399.27 152.39 397.58 153.92 C 395.95 154.04 393.78 153.48 393.56 155.72 C 392.02 155.56 390.49 155.38 388.98 155.05 C 388.99 153.70 389.00 152.34 389.01 150.99 C 388.52 150.72 387.53 150.17 387.04 149.89 C 386.89 153.06 386.76 156.32 388.25 159.22 C 389.73 158.66 391.17 158.00 392.51 157.16 C 395.59 156.77 398.57 157.80 401.60 158.21 C 402.08 159.34 402.60 160.46 403.12 161.59 C 402.61 161.92 401.60 162.59 401.09 162.93 C 400.41 162.96 399.05 163.02 398.36 163.05 C 397.41 163.66 396.46 164.27 395.51 164.87 C 391.85 165.83 387.45 164.55 384.59 167.62 C 382.25 166.96 379.22 167.50 377.69 165.21 C 374.86 159.72 374.28 153.18 375.67 147.16 C 376.67 142.45 375.81 136.91 378.99 132.95 C 378.99 131.68 378.99 130.41 378.98 129.15 C 381.83 126.73 385.81 129.88 388.53 127.08 Z" />
<path fill="#ffffff" opacity="1.00" d=" M 135.73 136.05 C 139.85 136.04 143.98 136.04 148.11 136.05 C 148.10 137.24 148.08 138.44 148.05 139.64 C 143.98 139.64 139.91 139.60 135.85 139.67 C 135.74 138.46 135.70 137.25 135.73 136.05 Z" />
<path fill="#ffffff" opacity="1.00" d=" M 210.11 148.15 C 213.20 147.11 216.15 145.71 219.26 144.73 C 218.86 153.33 215.83 161.84 210.81 168.83 C 209.33 171.08 206.95 173.23 204.08 173.01 C 199.77 173.04 195.47 172.94 191.16 173.04 C 193.80 166.01 196.02 158.79 198.79 151.82 C 201.33 150.37 204.61 150.45 207.23 148.97 C 206.55 152.80 204.58 156.24 203.84 160.04 C 204.26 159.99 205.10 159.88 205.53 159.83 C 207.65 156.21 208.31 151.94 210.11 148.15 Z" />
<path fill="#ffffff" opacity="1.00" d=" M 188.21 154.04 C 190.74 152.89 193.62 153.13 196.19 152.07 C 194.34 159.21 191.66 166.20 188.91 173.04 C 186.65 172.99 184.38 172.99 182.12 173.00 C 181.96 171.68 181.79 170.36 181.59 169.05 C 180.41 170.06 179.94 171.51 179.63 172.99 C 177.00 173.00 174.37 173.01 171.74 172.97 C 174.02 167.06 176.08 161.05 178.06 155.04 C 180.29 155.07 182.50 154.71 184.62 154.03 C 185.11 155.86 185.84 157.61 186.74 159.28 C 186.84 158.58 187.04 157.17 187.14 156.47 C 187.41 155.86 187.94 154.64 188.21 154.04 Z" />
<path fill="#ffffff" opacity="1.00" d=" M 372.40 176.19 C 380.62 175.41 388.85 176.65 397.07 176.89 C 401.62 175.88 406.26 175.89 410.90 176.11 C 416.02 175.60 421.89 175.72 425.91 179.34 C 427.27 182.09 423.43 183.57 421.59 184.78 C 421.08 185.01 420.06 185.46 419.55 185.69 C 419.02 186.00 417.97 186.62 417.44 186.93 C 412.30 187.48 406.89 186.03 401.98 187.94 C 399.31 188.33 396.75 187.28 394.13 187.06 C 389.73 186.79 385.33 187.13 380.96 187.54 C 379.69 187.53 378.70 188.41 377.65 188.96 C 377.11 188.96 376.02 188.97 375.48 188.97 C 372.26 186.68 368.22 184.25 367.35 180.13 C 367.61 177.54 370.36 176.90 372.40 176.19 Z" />
<path fill="#ffffff" opacity="1.00" d=" M 114.46 184.99 C 115.03 185.05 116.18 185.18 116.76 185.25 C 116.82 190.86 116.76 196.47 116.80 202.08 C 116.10 202.09 114.71 202.11 114.02 202.12 C 114.04 197.36 114.02 192.61 114.03 187.85 C 113.21 188.57 112.37 189.27 111.53 189.96 C 110.08 190.36 110.09 188.69 110.77 187.94 C 111.86 186.79 113.26 186.00 114.46 184.99 Z" />
<path fill="#ffffff" opacity="1.00" d=" M 126.31 186.30 C 129.82 183.85 134.76 184.63 136.91 188.45 C 137.40 193.09 138.28 199.02 133.75 202.03 C 131.59 202.18 129.42 202.17 127.26 202.02 C 126.24 200.74 124.85 199.60 124.77 197.84 C 126.35 197.85 128.08 198.08 128.29 200.00 C 129.82 200.17 131.42 200.52 132.91 199.92 C 134.31 198.72 134.80 196.87 135.21 195.15 C 133.26 196.70 130.99 197.40 128.49 196.97 C 127.94 196.65 126.85 195.99 126.30 195.67 C 125.97 195.17 125.32 194.18 124.99 193.68 C 124.97 191.89 124.96 190.10 125.00 188.32 C 125.33 187.81 125.98 186.80 126.31 186.30 M 129.09 186.93 C 128.30 188.22 126.77 189.31 126.97 191.00 C 126.92 192.69 128.40 193.80 129.25 195.09 C 130.84 194.90 132.98 195.40 133.86 193.63 C 134.38 191.92 134.44 190.05 133.88 188.34 C 132.97 186.45 130.75 187.12 129.09 186.93 Z" />
<path fill="#ffffff" opacity="1.00" d=" M 143.26 186.20 C 144.96 184.55 147.43 185.05 149.55 185.02 C 154.87 187.55 155.04 194.86 152.77 199.54 C 151.20 202.83 147.23 202.25 144.24 202.03 C 143.04 201.02 141.98 199.86 141.07 198.59 C 140.57 194.49 139.64 189.17 143.26 186.20 M 146.18 187.00 C 145.70 187.33 144.73 187.99 144.25 188.32 C 142.96 191.89 142.60 195.99 144.69 199.33 C 145.74 200.65 147.70 199.77 149.14 200.03 C 149.74 199.20 150.34 198.38 150.96 197.57 C 150.87 193.91 152.14 189.48 148.65 186.98 C 148.03 186.98 146.80 186.99 146.18 187.00 Z" />
<path fill="#ffffff" opacity="1.00" d=" M 161.48 185.02 C 164.66 184.43 169.57 185.36 169.39 189.45 C 167.52 191.09 166.91 187.86 165.63 187.09 C 164.44 186.99 163.26 186.94 162.07 186.93 C 160.96 188.32 159.70 189.68 159.77 191.60 C 162.81 190.05 167.97 189.61 169.30 193.58 C 171.23 196.83 169.13 202.06 165.10 202.17 C 162.53 202.67 159.55 202.13 158.22 199.65 C 155.82 194.85 156.49 187.92 161.48 185.02 M 161.12 193.10 C 159.50 195.15 159.73 197.94 161.14 200.03 C 163.21 200.48 165.39 200.45 167.07 198.98 C 167.05 197.31 167.04 195.64 167.03 193.98 C 166.00 193.33 164.97 192.70 163.93 192.09 C 163.00 192.43 162.06 192.77 161.12 193.10 Z" />
<path fill="#ffffff" opacity="1.00" d=" M 440.38 210.80 C 440.68 210.90 441.28 211.10 441.58 211.21 C 444.14 217.32 446.71 223.44 449.24 229.57 C 450.88 233.30 452.26 237.16 454.27 240.72 C 455.68 241.40 457.08 242.10 458.40 242.94 C 453.93 243.09 449.46 242.96 444.99 243.00 L 445.02 242.28 C 446.10 241.88 447.16 241.43 448.22 240.94 C 448.11 238.07 446.65 235.56 445.74 232.91 C 441.62 232.70 437.48 232.64 433.36 232.94 C 432.59 235.57 431.01 237.96 430.84 240.75 C 432.21 241.47 433.58 242.17 434.92 242.95 C 431.16 243.06 427.39 243.01 423.63 242.98 C 425.41 241.65 427.70 240.69 428.60 238.50 C 430.41 234.57 431.99 230.55 433.75 226.60 C 434.76 224.26 435.70 221.89 436.76 219.57 C 437.98 216.65 439.28 213.77 440.38 210.80 M 439.34 218.66 C 438.73 221.05 437.72 223.30 436.72 225.54 C 435.89 227.21 435.20 228.94 434.71 230.73 C 438.01 230.76 441.32 230.74 444.63 230.78 C 443.79 228.28 442.74 225.87 441.77 223.42 C 441.07 221.78 440.31 220.16 439.34 218.66 Z" />
<path fill="#ffffff" opacity="1.00" d=" M 716.27 212.10 C 720.17 210.08 724.78 210.91 728.53 212.85 C 729.34 212.12 730.16 211.40 731.00 210.69 C 731.01 214.46 730.99 218.23 731.00 222.01 L 730.15 222.00 C 729.68 220.48 729.21 218.97 728.84 217.43 C 727.81 216.28 726.76 215.18 725.69 214.09 C 721.87 211.54 715.82 213.58 715.86 218.60 C 719.69 224.33 727.60 225.10 731.75 230.45 C 735.13 235.13 731.93 242.25 726.36 243.29 C 722.29 245.16 718.32 242.28 714.30 241.99 C 714.04 242.49 713.52 243.48 713.25 243.97 C 711.18 240.92 712.92 236.56 712.35 233.03 C 712.70 233.01 713.40 232.99 713.75 232.97 C 713.80 236.85 716.57 240.73 720.51 241.38 C 724.06 242.58 728.12 240.64 729.08 236.95 C 727.44 231.09 720.76 229.81 716.48 226.45 C 712.57 224.34 710.83 219.19 713.09 215.27 C 714.14 214.21 715.20 213.15 716.27 212.10 Z" />
<path fill="#ffffff" opacity="1.00" d=" M 353.99 211.75 C 358.24 211.84 362.51 211.56 366.76 211.88 L 367.45 212.69 C 365.98 213.08 363.75 212.59 363.10 214.42 C 362.65 221.75 363.47 229.16 362.70 236.46 C 362.00 241.66 356.09 245.76 351.23 242.90 C 350.17 241.59 348.99 238.95 351.17 238.06 C 354.01 236.31 355.25 240.46 356.37 242.27 C 358.64 240.92 358.00 238.23 358.10 236.00 C 357.99 228.77 358.28 221.52 357.94 214.29 C 357.10 212.80 355.43 212.94 353.97 212.80 L 353.99 211.75 Z" />
<path fill="#ffffff" opacity="1.00" d=" M 370.99 211.75 C 375.28 211.86 379.58 211.53 383.86 211.90 L 384.61 212.69 C 383.00 213.00 380.32 212.63 380.08 214.91 C 379.85 223.40 380.12 231.91 379.95 240.40 C 381.51 241.48 383.32 242.06 384.99 242.93 C 380.33 243.10 375.66 242.95 371.00 243.00 L 371.00 242.14 C 372.45 241.97 375.06 241.96 375.01 239.89 C 375.25 231.60 375.21 223.30 375.04 215.01 C 375.10 212.86 372.51 212.88 371.00 212.81 L 370.99 211.75 Z" />
<path fill="#ffffff" opacity="1.00" d=" M 386.63 211.93 C 389.70 211.65 392.79 211.72 395.87 211.83 C 402.15 219.30 408.08 227.05 414.48 234.42 C 414.18 227.34 415.25 220.11 413.83 213.12 C 412.92 213.05 411.10 212.92 410.19 212.86 L 410.25 211.77 C 413.83 211.74 417.42 211.75 421.00 211.75 L 421.03 212.78 C 419.66 213.04 417.71 212.71 417.08 214.36 C 416.82 224.14 417.10 233.93 416.95 243.72 C 414.25 242.62 412.99 239.91 411.19 237.83 C 405.81 231.63 400.97 224.94 395.39 218.92 C 395.82 225.91 395.00 232.95 395.87 239.91 C 396.05 241.91 398.41 242.17 400.00 242.11 L 400.00 243.00 C 396.33 243.00 392.66 243.00 388.99 243.00 L 389.00 242.17 C 390.44 242.05 391.82 241.63 393.03 240.81 C 392.96 232.36 393.22 223.89 392.92 215.45 C 391.63 212.95 388.39 213.60 386.63 211.93 Z" />
<path fill="#ffffff" opacity="1.00" d=" M 459.95 211.76 C 462.84 211.91 465.84 211.34 468.65 212.09 C 474.82 219.45 480.67 227.11 486.97 234.36 C 486.97 227.70 487.12 221.03 486.91 214.38 C 486.28 212.71 484.31 213.03 482.93 212.79 L 482.97 211.75 C 486.65 212.22 490.95 210.69 494.23 212.67 C 492.87 212.85 491.51 213.01 490.15 213.14 C 489.84 214.39 489.46 215.65 489.41 216.95 C 489.12 225.95 489.79 235.00 489.07 243.98 C 481.66 235.87 475.05 227.08 468.02 218.65 C 467.94 225.84 468.07 233.04 467.96 240.23 C 469.19 241.88 471.38 241.76 472.88 242.95 C 468.88 242.54 464.26 244.04 460.63 242.19 C 461.47 242.13 463.16 242.00 464.01 241.94 C 464.90 240.83 466.08 239.70 465.89 238.11 C 466.06 230.84 465.81 223.55 466.00 216.28 C 464.91 215.13 463.76 214.05 462.58 213.01 C 461.89 212.99 460.51 212.96 459.82 212.94 L 459.95 211.76 Z" />
<path fill="#ffffff" opacity="1.00" d=" M 518.00 211.77 C 522.64 212.22 527.77 210.71 532.11 212.60 C 530.80 212.80 529.49 212.95 528.19 213.07 C 526.52 215.39 527.07 218.33 526.99 221.01 C 527.13 226.59 526.45 232.29 528.08 237.73 C 528.97 238.99 530.08 240.05 531.33 240.96 C 535.90 242.06 541.64 241.23 543.94 236.61 C 544.65 228.85 545.40 220.85 543.82 213.17 C 542.81 213.06 540.80 212.86 539.79 212.75 L 540.48 211.88 C 544.00 211.58 547.54 211.81 551.08 211.77 L 551.12 212.78 C 549.67 212.99 547.71 212.77 547.11 214.52 C 546.77 220.71 547.20 226.92 546.92 233.12 C 546.63 237.21 544.59 241.28 540.61 242.87 C 536.63 244.26 532.41 244.11 528.41 242.86 C 526.14 241.69 524.21 239.93 523.28 237.51 C 521.40 229.79 523.13 221.76 521.91 213.97 C 521.18 212.51 519.27 213.12 518.00 212.78 L 518.00 211.77 Z" />
<path fill="#ffffff" opacity="1.00" d=" M 552.71 212.15 C 555.96 211.50 559.32 211.64 562.60 211.99 C 567.08 218.46 572.55 224.23 577.32 230.51 C 578.40 231.96 579.69 233.24 580.99 234.50 C 580.86 228.63 580.99 222.76 580.93 216.90 C 581.02 215.50 580.36 214.24 579.85 212.99 C 579.04 212.97 577.40 212.93 576.58 212.91 L 576.60 211.78 C 580.12 211.73 583.64 211.75 587.16 211.75 L 587.30 212.90 C 586.52 212.92 584.96 212.97 584.18 212.99 C 583.30 214.16 582.80 215.51 582.99 217.00 C 582.97 226.03 583.06 235.06 582.95 244.08 C 575.39 236.32 569.26 227.20 561.92 219.21 C 561.97 226.12 561.78 233.04 562.01 239.94 C 561.97 241.98 564.57 241.95 566.00 242.15 L 566.02 243.00 C 562.35 243.00 558.67 243.00 555.00 243.00 L 555.00 242.14 C 556.53 242.05 559.01 241.95 559.08 239.87 C 559.67 232.28 559.22 224.64 559.35 217.04 C 559.18 213.61 555.25 213.07 552.71 212.15 Z" />
<path fill="#ffffff" opacity="1.00" d=" M 592.01 211.91 C 596.16 211.60 600.36 211.69 604.53 211.87 L 605.30 212.68 C 604.30 212.86 602.30 213.23 601.30 213.41 C 600.29 216.50 600.73 219.81 600.64 223.01 C 600.76 228.96 600.36 234.93 600.93 240.87 C 602.15 241.67 603.53 242.08 605.00 242.16 L 605.00 243.00 C 600.25 242.52 595.06 244.01 590.60 242.21 C 591.46 242.15 593.17 242.02 594.03 241.95 C 596.64 240.10 595.92 236.80 596.00 234.04 C 595.94 227.63 596.05 221.23 595.94 214.82 C 595.61 214.38 594.95 213.49 594.62 213.04 C 593.77 212.98 592.07 212.85 591.22 212.78 L 592.01 211.91 Z" />
<path fill="#ffffff" opacity="1.00" d=" M 608.93 211.75 C 613.23 212.20 617.97 210.78 622.00 212.55 C 620.62 213.02 618.66 212.85 618.03 214.48 C 618.37 216.63 619.45 218.57 620.24 220.58 C 621.31 222.88 622.26 225.23 623.26 227.57 C 624.70 230.08 625.17 233.21 627.02 235.41 C 630.05 229.49 632.22 223.00 634.82 216.82 C 635.92 214.67 634.28 212.65 632.00 212.77 L 632.00 211.79 C 635.41 212.05 639.12 211.02 642.34 212.40 C 637.25 213.61 636.59 219.45 634.64 223.44 C 631.51 230.29 629.41 237.70 625.63 244.18 C 623.71 240.73 622.39 236.99 620.76 233.40 C 619.71 231.10 618.75 228.75 617.75 226.43 C 616.00 222.74 614.62 218.88 612.76 215.24 C 611.97 213.78 610.51 212.80 608.84 212.78 L 608.93 211.75 Z" />
<path fill="#ffffff" opacity="1.00" d=" M 645.25 211.90 C 653.46 211.63 661.70 211.69 669.92 211.87 C 669.97 214.38 670.06 216.89 669.95 219.41 C 668.36 217.93 668.37 215.40 666.64 214.09 C 662.71 213.53 658.73 213.84 654.78 213.78 C 654.77 217.77 654.71 221.76 654.85 225.75 C 658.21 225.78 661.63 225.96 664.90 224.98 C 665.52 223.72 665.98 222.39 666.23 221.00 L 667.01 220.99 C 666.98 224.81 667.09 228.63 666.96 232.45 C 665.84 231.20 665.44 229.52 664.74 228.05 C 661.43 227.71 658.10 227.74 654.79 227.78 C 654.81 232.18 654.61 236.60 654.99 241.00 C 658.62 240.88 662.29 241.26 665.90 240.80 C 669.03 239.93 669.71 236.32 672.17 234.64 C 671.90 237.57 670.50 240.20 669.74 243.00 C 661.40 242.87 653.04 243.27 644.72 242.80 C 646.53 242.07 648.46 241.56 649.99 240.28 C 649.92 231.82 650.17 223.35 649.88 214.90 C 649.67 212.27 646.35 213.61 645.25 211.90 Z" />
<path fill="#ffffff" opacity="1.00" d=" M 675.77 212.21 C 681.43 211.27 687.27 211.81 693.00 211.98 C 697.81 211.97 702.24 217.00 700.72 221.79 C 699.68 225.01 696.67 226.92 693.63 227.97 C 695.95 231.70 698.64 235.19 701.24 238.73 C 702.93 241.09 705.98 241.50 708.38 242.84 C 705.32 243.10 702.25 242.98 699.19 243.02 C 695.18 238.43 692.38 232.82 688.05 228.55 C 687.41 228.59 686.14 228.66 685.51 228.69 C 685.69 232.69 684.96 236.82 686.07 240.73 C 686.97 242.10 688.54 242.07 690.00 242.11 L 690.00 243.00 C 685.48 242.86 680.91 243.28 676.43 242.82 L 675.67 242.20 C 676.51 242.13 678.18 242.00 679.02 241.94 C 679.88 240.81 681.19 239.72 680.94 238.11 C 681.03 231.03 681.00 223.94 680.97 216.86 C 681.05 215.50 680.38 214.30 679.85 213.10 C 678.44 213.01 677.06 212.78 675.77 212.21 M 685.45 214.06 C 685.53 218.33 685.46 222.60 685.54 226.87 C 689.08 227.02 693.15 226.04 695.05 222.74 C 695.69 219.40 695.11 215.54 691.71 213.96 C 689.62 213.90 687.53 213.92 685.45 214.06 Z" />
<path fill="#ffffff" opacity="1.00" d=" M 738.99 211.75 C 743.38 211.75 747.77 211.75 752.16 211.75 L 752.29 212.79 C 750.71 212.93 748.21 212.77 748.06 214.97 C 747.86 223.43 748.13 231.90 747.94 240.36 C 749.28 241.37 750.73 242.24 752.50 242.19 L 752.44 243.00 C 747.96 243.00 743.48 243.00 739.00 243.00 L 739.00 242.15 C 740.42 241.96 743.01 241.97 743.01 239.94 C 743.25 231.65 743.21 223.33 743.04 215.04 C 743.11 212.88 740.52 212.87 739.00 212.80 L 738.99 211.75 Z" />
<path fill="#ffffff" opacity="1.00" d=" M 757.31 211.92 C 765.85 211.54 774.40 211.85 782.95 211.76 C 783.09 214.18 783.27 216.60 783.52 219.02 L 782.20 219.01 C 782.03 217.63 781.98 216.14 780.80 215.20 C 778.67 213.00 775.31 214.34 772.64 213.99 C 772.74 222.29 772.46 230.61 772.77 238.90 C 772.43 241.36 774.96 242.36 777.00 242.12 L 777.00 243.00 C 772.28 242.57 767.20 243.90 762.72 242.27 C 763.54 242.18 765.18 242.00 766.00 241.91 C 766.64 241.28 767.28 240.65 767.94 240.02 C 768.07 231.34 767.96 222.66 768.00 213.98 C 765.73 213.98 763.46 214.00 761.21 213.96 C 759.03 215.20 759.00 218.04 757.03 219.43 C 757.00 216.92 757.16 214.42 757.31 211.92 Z" />
<path fill="#ffffff" opacity="1.00" d=" M 786.59 212.00 C 791.45 211.69 796.39 211.45 801.24 212.11 C 799.79 212.85 797.95 213.02 796.95 214.43 C 799.01 218.99 802.34 222.85 804.72 227.25 C 807.51 223.91 809.39 219.92 812.00 216.43 C 811.99 215.39 811.96 214.34 811.89 213.30 C 811.10 213.13 809.51 212.78 808.72 212.60 C 812.04 210.80 816.30 212.16 820.02 211.76 L 820.00 212.72 C 818.19 213.09 816.31 213.72 815.25 215.34 C 812.04 219.95 809.31 224.89 806.05 229.48 C 805.94 233.08 806.06 236.67 805.94 240.27 C 807.21 241.63 808.87 242.26 810.75 242.28 C 806.54 243.93 801.52 242.55 797.00 243.00 L 797.00 242.14 C 798.34 241.91 800.16 242.10 800.91 240.65 C 801.30 236.93 801.21 233.18 800.98 229.46 C 797.36 224.53 794.35 219.17 790.73 214.24 C 789.41 213.37 787.92 212.79 786.59 212.00 Z" />
</g>
</svg>
