<?xml version="1.0" standalone="no"?><!DOCTYPE svg PUBLIC "-//W3C//DTD SVG 1.1//EN" "http://www.w3.org/Graphics/SVG/1.1/DTD/svg11.dtd"><svg t="1743066456505" class="icon" viewBox="0 0 1024 1024" version="1.1" xmlns="http://www.w3.org/2000/svg" p-id="4846" xmlns:xlink="http://www.w3.org/1999/xlink" width="200" height="200"><path d="M1004.85968 449.6c-38.4-81.6-115.2-99.2-118.4-99.2-78.4-24-153.6-17.6-209.6 20.8-51.2 33.6-81.6 89.6-88 156.8v43.2l-56 128 48 1.6-3.2 64c0 11.2 3.2 22.4 12.8 30.4 8 8 19.2 12.8 30.4 11.2h52.8v128h24V784h-76.8c-4.8 0-9.6-1.6-12.8-4.8-3.2-3.2-4.8-8-4.8-12.8l3.2-88-36.8-1.6 44.8-100.8v-46.4c4.8-59.2 32-107.2 76.8-137.6 49.6-33.6 116.8-40 190.4-17.6 0 0 70.4 16 102.4 86.4 35.2 76.8 16 185.6-56 324.8-11.2 27.2-16 54.4-16 84.8v62.4h24v-62.4c0-25.6 4.8-51.2 14.4-73.6 73.6-147.2 92.8-264 54.4-347.2z" p-id="4847" fill="#e6e6e6"></path><path d="M777.65968 780.8h24v24h-24zM729.65968 780.8h24v24h-24zM441.65968 465.6l48-1.6-56-128v-43.2c-6.4-65.6-36.8-121.6-88-155.2-56-36.8-129.6-44.8-208-20.8-3.2 0-81.6 19.2-118.4 99.2-38.4 84.8-19.2 201.6 56 345.6 9.6 24 14.4 49.6 14.4 75.2v62.4h24v-62.4c0-28.8-4.8-57.6-17.6-84.8C24.05968 412.8 4.85968 304 40.05968 227.2c32-70.4 102.4-86.4 104-88 72-22.4 139.2-16 188.8 17.6 44.8 30.4 72 78.4 76.8 136v48l44.8 100.8-36.8 1.6 3.2 88c0 4.8-1.6 9.6-4.8 12.8-3.2 3.2-8 4.8-14.4 4.8h-76.8v150.4h24v-128h52.8c11.2 0 22.4-3.2 30.4-11.2 8-8 12.8-19.2 12.8-30.4l-3.2-64z" p-id="4848" fill="#e6e6e6"></path><path d="M222.45968 548.8h24v24h-24zM270.45968 548.8h24v24h-24zM966.45968 30.4h-92.8v236.8h92.8V30.4z m-24 214.4H896.05968V54.4h46.4v190.4zM825.65968 88h-92.8v179.2h92.8V88z m-22.4 156.8h-46.4V112h46.4v132.8zM684.85968 153.6H592.05968v115.2h92.8V153.6z m-22.4 91.2h-46.4V176h46.4v68.8zM353.65968 785.6l28.8 28.8H108.85968v22.4h273.6l-28.8 28.8 17.6 16 56-56-56-56zM148.85968 880l-57.6 56 57.6 57.6 16-17.6-28.8-27.2h275.2v-24H136.05968l28.8-28.8z" p-id="4849" fill="#e6e6e6"></path></svg>