<?xml version="1.0" standalone="no"?><!DOCTYPE svg PUBLIC "-//W3C//DTD SVG 1.1//EN" "http://www.w3.org/Graphics/SVG/1.1/DTD/svg11.dtd"><svg t="1743066616580" class="icon" viewBox="0 0 1173 1024" version="1.1" xmlns="http://www.w3.org/2000/svg" p-id="9489" xmlns:xlink="http://www.w3.org/1999/xlink" width="229.1015625" height="200"><path d="M45.53997 405.939166a49.590531 49.590531 0 0 0-11.117641 23.990699 95.231374 95.231374 0 0 0-1.755417 11.70278v281.59815a87.770852 87.770852 0 0 0 4.242258 17.700455c4.681112 12.726774 11.556495 20.041011 23.259276 20.041011H225.177647a341.574898 341.574898 0 0 1 38.47289 1.755417 38.034036 38.034036 0 0 1 20.333581 12.141635 122.879193 122.879193 0 0 1 14.628475 19.602156 582.652171 582.652171 0 0 1 31.451222 56.027061c9.801078 19.455872 19.748442 40.374592 29.256951 59.684179l2.340556 4.973682c10.093648 20.91872 19.017018 39.643168 26.331255 53.24765 12.873058 23.990699 26.331256 26.184971 33.206639 24.868408a18.139309 18.139309 0 0 0 14.628475-17.261601 76.653211 76.653211 0 0 0-2.925695-14.628475c-2.047987-7.899377-5.119966-17.700455-8.777085-29.256951-7.460522-22.088998-17.407886-48.859107-27.501533-74.897793s-20.187296-50.760809-27.647819-69.192689l-9.069654-22.235282-2.633126-5.997675-0.877709-2.194271v-3.657119c0-1.755417-1.609132-4.388543-3.071979-7.460523a121.416345 121.416345 0 0 0-12.726774-23.11299 66.705847 66.705847 0 0 0-52.662511-32.036361c-31.304937-0.877709-59.39161-1.901702-80.01776-3.07198-10.239933 0-18.870733-1.170278-25.160977-1.901702a61.147027 61.147027 0 0 1-8.484516-1.316563 26.623825 26.623825 0 0 1-4.534827-1.462847 14.628475 14.628475 0 0 1-3.657119-1.901702 15.506184 15.506184 0 0 1-5.558821-6.582814 18.578164 18.578164 0 0 1-1.609132-5.119966 11.117641 11.117641 0 0 1 0-2.194272 36.278619 36.278619 0 0 1 0-4.242257v-12.726774-37.010042-39.496884-25.014693a20.333581 20.333581 0 0 1 3.949688-12.287919 18.578164 18.578164 0 0 1 14.628476-6.875383 23.112991 23.112991 0 0 1 8.777085 1.901702 43.885426 43.885426 0 0 1 5.85139 2.925695c5.119966 2.925695 11.849065 7.899377 18.431879 12.726773l4.681112 3.510834a228.350499 228.350499 0 0 0 26.47754 17.407886 48.712823 48.712823 0 0 0 20.62615 7.167953h142.773919a19.163303 19.163303 0 0 0 14.628475-5.85139 21.503859 21.503859 0 0 0 5.119967-14.628476 23.551845 23.551845 0 0 0-21.942713-24.283269c-48.712823-5.266251-124.63461-11.556495-141.018502-11.556495a29.256951 29.256951 0 0 1-19.309587-9.947363 110.737558 110.737558 0 0 1-11.702781-12.726774c-7.460522-9.362224-15.652469-21.796428-23.844414-34.084347l-1.755417-2.779411c-7.753092-11.556495-14.628475-22.966706-22.381568-32.6215a90.550262 90.550262 0 0 0-17.993024-20.041011 71.972098 71.972098 0 0 0-24.136984-7.167953 263.312555 263.312555 0 0 0-40.082023-2.925695 224.693381 224.693381 0 0 0-38.034036 2.925695 86.015435 86.015435 0 0 0-12.873058 3.218265 21.065004 21.065004 0 0 0-4.242258 2.633126z m340.98976 338.795487v1.462848l2.633125 6.14396 9.069655 22.235282c7.606807 18.578164 17.84674 43.885426 27.940388 69.924112s20.333581 53.393935 27.940387 76.214356c3.803404 11.410211 7.167953 21.942713 9.508509 30.719798a98.157069 98.157069 0 0 1 3.949689 22.966707 50.17567 50.17567 0 0 1-41.106016 48.712822c-24.868408 4.681112-50.614525-9.215939-67.729841-41.2523-7.753092-14.628475-17.115316-33.938063-26.916394-54.564213l-2.340556-4.973681c-9.215939-19.455872-19.017018-39.935738-29.256951-58.513902a545.642129 545.642129 0 0 0-29.25695-52.95508 111.907836 111.907836 0 0 0-11.410211-14.628475 20.62615 20.62615 0 0 0-3.07198-2.633126c-5.705105 0-17.115316-1.170278-32.914069-1.316563s-36.424903 0-57.051054 0H59.583307A56.758484 56.758484 0 0 1 5.896802 751.024898a115.857524 115.857524 0 0 1-5.85139-24.429554v-8.045661-3.36455h16.091323H0.045412V445.436049h16.091323H0.045412a5.997675 5.997675 0 0 1 0-1.462848v-4.681112a150.088157 150.088157 0 0 1 2.486841-15.506184 79.286336 79.286336 0 0 1 20.041011-40.082022 42.130009 42.130009 0 0 1 15.652469-9.215939 105.910161 105.910161 0 0 1 18.578163-5.266251 257.753735 257.753735 0 0 1 43.885426-3.510835 300.468883 300.468883 0 0 1 45.348274 3.36455 100.64391 100.64391 0 0 1 36.571188 11.99535 115.564955 115.564955 0 0 1 26.331255 27.940387c7.753092 10.386217 15.652469 22.381567 23.259276 33.791778l1.901702 2.925695c8.191946 12.580489 15.798753 23.69813 22.235282 31.890077a66.559563 66.559563 0 0 0 7.460523 8.191946c22.674137 0 95.523944 6.582814 141.603641 11.556495a55.588206 55.588206 0 0 1 50.614524 56.027061 53.24765 53.24765 0 0 1-13.165628 35.693479 51.199664 51.199664 0 0 1-39.204313 16.676462h-142.042495a77.384634 77.384634 0 0 1-35.98605-10.971356 319.339616 319.339616 0 0 1-30.280944-19.748442l-4.973681-3.803404v81.626893c4.973682 0 11.410211 1.023993 19.163302 1.462847 20.041011 1.170278 47.835114 2.047987 78.993767 2.925695a99.619917 99.619917 0 0 1 78.408628 45.787128 175.541704 175.541704 0 0 1 15.945038 29.25695c1.609132 3.803404 2.77941 7.167953 3.657119 9.508509a19.017018 19.017018 0 0 1 0.877708 2.779411z m-121.416345-257.900019zM32.374343 446.167473zM1110.054118 405.939166a49.590531 49.590531 0 0 1 11.117641 23.990699 95.231374 95.231374 0 0 1 1.755417 11.70278v281.59815a87.770852 87.770852 0 0 1-4.242258 17.700455c-4.681112 12.726774-11.556495 20.041011-23.259275 20.041011H930.416441a341.574898 341.574898 0 0 0-38.47289 1.755417 38.619175 38.619175 0 0 0-20.333581 12.141635 131.656278 131.656278 0 0 0-14.628475 19.602156 582.652171 582.652171 0 0 0-31.451222 56.027061c-9.801078 19.455872-19.748442 40.374592-29.25695 59.684179l-2.340556 4.973682c-9.947363 20.91872-19.017018 39.643168-26.331256 53.24765-12.873058 23.990699-26.331256 26.184971-33.206639 24.868408a18.139309 18.139309 0 0 1-14.628475-17.261601 76.653211 76.653211 0 0 1 2.925695-14.628475c2.047987-7.899377 5.119966-17.700455 8.777085-29.256951 7.460522-22.088998 17.407886-48.859107 27.501534-74.897793s20.187296-50.760809 27.647818-69.192689l9.069655-22.235282 2.633125-5.997675 0.877709-2.194271v-1.755417a11.556495 11.556495 0 0 1 0-1.901702 62.317305 62.317305 0 0 1 2.925695-7.460523 121.416345 121.416345 0 0 1 12.726773-23.11299 66.705847 66.705847 0 0 1 52.662511-32.036361c31.304937-0.877709 59.39161-1.901702 80.01776-3.07198 10.239933 0 18.870733-1.170278 25.160978-1.901702a61.147027 61.147027 0 0 0 8.484515-1.316563 26.623825 26.623825 0 0 0 4.534828-1.462847 14.628475 14.628475 0 0 0 3.657119-1.901702 16.530177 16.530177 0 0 0 5.705105-6.582814 22.088998 22.088998 0 0 0 1.462848-5.119966 11.117641 11.117641 0 0 0 0-2.194272 36.278619 36.278619 0 0 0 0-4.242257v-12.726774-37.010042-39.496884-25.014693a20.333581 20.333581 0 0 0-3.949689-12.287919 18.578164 18.578164 0 0 0-14.628475-6.875383 23.112991 23.112991 0 0 0-8.777085 1.901702 43.885426 43.885426 0 0 0-5.85139 2.925695c-5.119966 2.925695-11.849065 7.899377-18.431879 12.726773l-4.681112 3.510834a216.501434 216.501434 0 0 1-26.477541 17.407886 48.712823 48.712823 0 0 1-20.62615 7.167953h-142.773919a19.163303 19.163303 0 0 1-14.628475-5.85139 21.503859 21.503859 0 0 1-5.119966-14.628476 23.551845 23.551845 0 0 1 21.942713-24.283269c48.712823-5.266251 124.63461-11.556495 141.018501-11.556495a29.256951 29.256951 0 0 0 18.285595-7.753092 110.737558 110.737558 0 0 0 11.70278-12.726774c7.460522-9.362224 15.652469-21.796428 23.844415-34.084347l1.755417-2.77941c7.753092-11.556495 14.628475-22.966706 22.381567-32.6215a90.550262 90.550262 0 0 1 17.993024-20.041011 71.972098 71.972098 0 0 1 24.136985-7.167953 263.312555 263.312555 0 0 1 40.082022-2.925695 224.693381 224.693381 0 0 1 38.034036 2.925695 86.015435 86.015435 0 0 1 12.873058 3.218264 21.065004 21.065004 0 0 1 5.412536 0.438855z m-340.843475 338.795487v1.462848l-2.633125 6.14396-9.069655 22.235282c-7.606807 18.578164-17.700455 43.885426-27.940388 69.924112s-20.333581 53.393935-27.940388 76.214356c-3.803404 11.410211-7.167953 21.942713-9.508508 30.719798a98.157069 98.157069 0 0 0-3.949689 22.966707 50.17567 50.17567 0 0 0 41.106016 48.712822c24.868408 4.681112 50.614525-9.215939 67.72984-41.2523 7.753092-14.628475 17.115316-33.938063 26.916395-54.564213l2.340556-4.973681c9.362224-19.455872 19.017018-39.935738 29.256951-58.513902a545.642129 545.642129 0 0 1 29.25695-52.95508 111.907836 111.907836 0 0 1 11.410211-14.628475 20.62615 20.62615 0 0 1 3.07198-2.633126c5.705105 0 17.115316-1.170278 32.914069-1.316563s36.424903 0 57.051054 0H1096.157066a56.758484 56.758484 0 0 0 53.686505-41.2523 115.857524 115.857524 0 0 0 5.85139-24.429554c0-3.364549 0-6.14396 0.731424-8.045661s0-1.755417 0-2.340556v-1.023994h-16.091323 16.091323V445.436049h-16.091323 16.091323a5.997675 5.997675 0 0 0 0-1.462848v-4.681112a118.49065 118.49065 0 0 0-2.486841-15.506184 79.286336 79.286336 0 0 0-20.041011-40.082022 42.715148 42.715148 0 0 0-15.506184-9.215939 111.322697 111.322697 0 0 0-18.285594-4.681112 257.753735 257.753735 0 0 0-43.885426-3.510835 300.468883 300.468883 0 0 0-45.348274 3.36455 100.64391 100.64391 0 0 0-36.571188 11.99535A115.564955 115.564955 0 0 0 947.970612 409.596284c-7.606807 10.386217-15.652469 22.381567-23.112991 33.791778l-2.047987 2.925695c-8.191946 12.580489-15.798753 23.69813-22.235282 31.890077a66.559563 66.559563 0 0 1-7.460523 8.191946c-22.674137 0-95.523944 6.582814-141.603641 11.556495a55.588206 55.588206 0 0 0-51.053379 55.441922 53.24765 53.24765 0 0 0 13.165628 35.693479 51.199664 51.199664 0 0 0 39.204314 16.676462h142.773919a77.384634 77.384634 0 0 0 35.986049-10.971356 319.339616 319.339616 0 0 0 30.280944-19.748442l4.973682-3.803404v77.384635a39.643168 39.643168 0 0 1 0 4.242258c-4.973682 0-11.410211 1.023993-19.163303 1.462847-20.041011 1.170278-47.835114 2.047987-78.993767 2.925695a99.619917 99.619917 0 0 0-78.408627 45.787128 163.400069 163.400069 0 0 0-15.798754 29.25695c-1.755417 3.803404-2.925695 7.167953-3.803403 9.508509a19.017018 19.017018 0 0 0-0.877709 2.779411z m121.416345-257.900019z m232.739042-40.667161z" p-id="9490" fill="#e6e6e6"></path><path d="M746.097652 585.137988a14.628475 14.628475 0 0 1-14.628475 14.628475H438.899671a14.628475 14.628475 0 0 1 0-29.25695h292.569506a14.628475 14.628475 0 0 1 14.628475 14.628475z" p-id="9491" fill="#e6e6e6"></path><path d="M570.555949 43.884402a22.088998 22.088998 0 1 0 25.014693 21.942713A23.551845 23.551845 0 0 0 570.555949 43.884402z m-58.513901 21.942713A58.513901 58.513901 0 1 1 570.555949 117.026778a55.295637 55.295637 0 0 1-58.513901-51.199663z" fill="#e6e6e6" p-id="9492"></path><path d="M570.555949 178.758944A40.667161 40.667161 0 1 0 611.22311 219.426105 40.813446 40.813446 0 0 0 570.555949 178.758944zM497.413572 219.426105a73.142376 73.142376 0 1 1 73.142377 73.142377 73.142376 73.142376 0 0 1-73.142377-73.142377zM570.555949 340.111027a84.260018 84.260018 0 0 0-85.86915 82.358316 15.652469 15.652469 0 1 1-31.158653 0 117.027802 117.027802 0 0 1 234.055605 0 15.652469 15.652469 0 1 1-31.158652 0A84.260018 84.260018 0 0 0 570.555949 340.111027z" p-id="9493" fill="#e6e6e6"></path><path d="M326.552981 75.335624a15.945038 15.945038 0 0 0-16.091323 15.798753v315.097358a15.945038 15.945038 0 0 0 16.091323 15.506184h502.634411a15.945038 15.945038 0 0 0 16.091323-15.798753V91.134377a15.945038 15.945038 0 0 0-16.091323-15.798753H626.436724V43.884402h202.750668A47.981399 47.981399 0 0 1 877.75393 91.134377v315.097358A47.981399 47.981399 0 0 1 829.187392 453.48171H326.552981A47.981399 47.981399 0 0 1 277.986443 406.231735V91.134377A47.981399 47.981399 0 0 1 326.552981 43.884402h210.796329v31.451222z" fill="#e6e6e6" p-id="9494"></path><path d="M599.812899 570.509513v-117.027803h29.256951v117.027803zM526.670523 570.509513v-117.027803h29.256951v117.027803z" fill="#e6e6e6" p-id="9495"></path><path d="M117.073215 351.082383a102.399327 102.399327 0 1 1 102.399327-102.399327 102.399327 102.399327 0 0 1-102.399327 102.399327z m0-175.541703a73.142376 73.142376 0 1 0 73.142376 73.142376 73.142376 73.142376 0 0 0-73.142376-73.142376zM1038.667158 351.082383a102.399327 102.399327 0 1 1 102.399327-102.399327 102.399327 102.399327 0 0 1-102.399327 102.399327z m0-175.541703a73.142376 73.142376 0 1 0 73.142377 73.142376 73.142376 73.142376 0 0 0-73.142377-73.142376z" fill="#e6e6e6" p-id="9496"></path></svg>