<?xml version="1.0" standalone="no"?><!DOCTYPE svg PUBLIC "-//W3C//DTD SVG 1.1//EN" "http://www.w3.org/Graphics/SVG/1.1/DTD/svg11.dtd"><svg t="1743066377400" class="icon" viewBox="0 0 1025 1024" version="1.1" xmlns="http://www.w3.org/2000/svg" p-id="2427" xmlns:xlink="http://www.w3.org/1999/xlink" width="200.1953125" height="200"><path d="M936.04368 262.4h-27.2c-3.2 0-4.8-1.6-4.8-4.8l-4.8-24c0-3.2 1.6-4.8 3.2-6.4l24-9.6c3.2-1.6 4.8-4.8 3.2-6.4l-12.8-30.4c-1.6-4.8-4.8-6.4-8-4.8l-24 11.2c-1.6 1.6-4.8 0-6.4-1.6-4.8-6.4-8-14.4-14.4-20.8-1.6-1.6-1.6-4.8 0-8l19.2-19.2c1.6-1.6 1.6-6.4 0-8l-24-24c-1.6-1.6-6.4-1.6-8 0L832.04368 124.8c-1.6 1.6-4.8 1.6-6.4 1.6L804.84368 112c-3.2-1.6-3.2-4.8-1.6-6.4l9.6-25.6c1.6-3.2 0-6.4-3.2-6.4l-32-12.8c-3.2-1.6-6.4 0-6.4 3.2l-9.6 24c-1.6 1.6-3.2 3.2-6.4 3.2-6.4-1.6-17.6-4.8-24-4.8-3.2 0-4.8-1.6-4.8-4.8V56c0-3.2-3.2-4.8-4.8-4.8H688.04368c-3.2 0-4.8 1.6-4.8 4.8v25.6c0 3.2-1.6 4.8-4.8 4.8l-24 4.8c-3.2 0-4.8-1.6-6.4-3.2L636.84368 64c-1.6-3.2-4.8-4.8-6.4-3.2l-32 12.8c-3.2 1.6-4.8 4.8-3.2 8l11.2 25.6c1.6 3.2 0 4.8-1.6 6.4l-20.8 14.4c-3.2 0-6.4 0-8-1.6l-19.2-19.2c-1.6-1.6-6.4-1.6-8 0l-24 24c-1.6 1.6-1.6 4.8 0 8L544.04368 156.8c1.6 1.6 1.6 4.8 0 8-4.8 6.4-9.6 12.8-14.4 20.8-1.6 1.6-4.8 3.2-6.4 1.6l-25.6-9.6c-3.2-1.6-6.4 0-6.4 3.2l-12.8 32c-1.6 3.2 0 6.4 3.2 6.4l24 9.6c1.6 1.6 3.2 3.2 3.2 6.4-1.6 6.4-3.2 17.6-4.8 24 0 3.2-3.2 4.8-4.8 4.8h-27.2c-3.2 0-4.8 1.6-4.8 4.8v33.6c0 3.2 3.2 4.8 4.8 4.8h27.2c3.2 0 4.8 1.6 4.8 4.8 1.6 6.4 3.2 17.6 4.8 24 0 3.2-1.6 4.8-3.2 6.4L480.04368 352c-3.2 1.6-4.8 4.8-3.2 8l12.8 30.4c1.6 3.2 4.8 4.8 6.4 3.2l25.6-9.6c1.6-1.6 4.8 0 6.4 1.6 3.2 4.8 9.6 16 14.4 20.8 1.6 1.6 1.6 4.8 0 6.4L523.24368 432c-1.6 1.6-1.6 4.8 0 8l24 24c1.6 1.6 6.4 1.6 8 0l19.2-19.2c1.6-1.6 4.8-1.6 6.4 0l20.8 12.8c1.6 1.6 3.2 4.8 1.6 6.4l-9.6 25.6c-1.6 3.2 0 6.4 3.2 8l32 12.8c3.2 1.6 6.4 0 6.4-3.2l9.6-25.6c1.6-1.6 3.2-3.2 6.4-3.2 6.4 1.6 17.6 4.8 24 4.8 3.2 0 4.8 3.2 4.8 4.8v27.2c0 3.2 3.2 4.8 4.8 4.8h33.6c3.2 0 4.8-1.6 4.8-4.8v-27.2c0-3.2 1.6-4.8 4.8-4.8l24-4.8c3.2-1.6 4.8 0 6.4 3.2l9.6 25.6c1.6 3.2 4.8 3.2 8 3.2l30.4-12.8c3.2-1.6 4.8-4.8 3.2-8l-9.6-24c-1.6-3.2 0-4.8 1.6-6.4 8-4.8 14.4-9.6 20.8-14.4 1.6-1.6 4.8-1.6 6.4 0L848.04368 464c1.6 1.6 6.4 1.6 8 0l24-24c1.6-1.6 1.6-4.8 0-8l-19.2-19.2c-1.6-1.6-1.6-4.8 0-6.4 4.8-6.4 9.6-12.8 14.4-20.8 1.6-1.6 4.8-3.2 6.4-1.6l25.6 9.6c3.2 1.6 6.4 0 6.4-3.2l12.8-30.4c1.6-3.2 0-6.4-3.2-8l-25.6-9.6c-3.2-1.6-3.2-3.2-3.2-6.4l4.8-24c0-3.2 3.2-4.8 4.8-4.8h27.2c3.2 0 4.8-1.6 4.8-4.8v-33.6c4.8-4.8 3.2-6.4 0-6.4zM705.64368 430.4c-80 0-145.6-64-145.6-144s64-145.6 144-145.6 145.6 64 145.6 144-64 145.6-144 145.6z" fill="#e6e6e6" p-id="2428"></path><path d="M788.84368 302.4c-6.4 33.6-33.6 59.2-67.2 65.6v36.8c54.4-8 96-49.6 104-104l-36.8 1.6zM788.84368 270.4h36.8c-6.4-56-49.6-99.2-105.6-105.6v36.8c35.2 6.4 62.4 33.6 68.8 68.8zM622.44368 304h-36.8c8 52.8 51.2 96 105.6 102.4v-36.8c-35.2-6.4-62.4-32-68.8-65.6zM688.04368 201.6v-36.8c-54.4 8-99.2 51.2-104 107.2h36.8c6.4-35.2 33.6-62.4 67.2-70.4zM766.44368 284.8c0-33.6-27.2-62.4-62.4-62.4-33.6 0-62.4 27.2-62.4 62.4 0 33.6 28.8 62.4 62.4 62.4 35.2 0 64-27.2 62.4-62.4zM1020.84368 636.8h-17.6c-1.6 0-3.2-1.6-3.2-3.2 0-4.8-1.6-9.6-3.2-16 0-1.6 0-3.2 1.6-4.8l16-6.4c1.6 0 3.2-3.2 1.6-4.8l-8-17.6c0-1.6-3.2-3.2-4.8-1.6l-16 6.4c-1.6 0-3.2 0-4.8-1.6-3.2-4.8-4.8-9.6-8-12.8-1.6-1.6-1.6-3.2 0-4.8l12.8-12.8c1.6-1.6 1.6-3.2 0-4.8l-16-16c-1.6-1.6-3.2-1.6-4.8 0l-12.8 12.8c-1.6 1.6-3.2 1.6-4.8 0l-12.8-9.6c-1.6-1.6-1.6-3.2-1.6-4.8l6.4-16c0-1.6 0-3.2-1.6-4.8l-20.8-8c-1.6 0-3.2 0-4.8 1.6l-6.4 16c0 1.6-1.6 3.2-3.2 1.6-4.8-1.6-11.2-3.2-16-3.2-1.6 0-3.2-1.6-3.2-3.2v-17.6c0-1.6-1.6-3.2-3.2-3.2h-22.4c-1.6 0-3.2 1.6-3.2 3.2v17.6c0 1.6-1.6 3.2-3.2 3.2-4.8 1.6-9.6 1.6-16 3.2-1.6 0-3.2 0-4.8-1.6l-6.4-16c0-1.6-3.2-3.2-4.8-1.6l-19.2 8c-1.6 1.6-3.2 3.2-1.6 4.8l6.4 16c0 1.6 0 3.2-1.6 4.8l-12.8 9.6c-1.6 1.6-3.2 0-4.8 0l-12.8-12.8c-1.6-1.6-3.2-1.6-4.8 0l-16 16c-1.6 1.6-1.6 3.2 0 4.8l12.8 12.8c1.6 1.6 1.6 3.2 0 4.8-3.2 4.8-6.4 8-9.6 12.8 0 1.6-3.2 1.6-4.8 1.6l-16-6.4c-1.6 0-3.2 0-4.8 1.6l-8 20.8c0 1.6 0 3.2 1.6 4.8l16 6.4c1.6 0 3.2 1.6 1.6 3.2-1.6 4.8-3.2 11.2-3.2 16 0 1.6-1.6 3.2-3.2 3.2h-17.6c-1.6 0-3.2 1.6-3.2 3.2v22.4c0 1.6 1.6 3.2 3.2 3.2H736.04368c1.6 0 3.2 1.6 3.2 3.2 0 4.8 1.6 11.2 3.2 16 0 1.6 0 3.2-1.6 3.2l-16 6.4c-1.6 1.6-3.2 3.2-1.6 4.8l8 19.2c0 1.6 3.2 3.2 4.8 1.6l16-6.4c1.6 0 3.2 0 4.8 1.6 1.6 3.2 6.4 9.6 9.6 12.8 1.6 1.6 0 3.2 0 4.8l-12.8 12.8c-1.6 1.6-1.6 3.2 0 4.8l16 14.4c1.6 1.6 3.2 1.6 4.8 0l12.8-12.8c1.6-1.6 3.2-1.6 4.8 0l14.4 9.6c1.6 1.6 1.6 3.2 1.6 4.8l-6.4 16c0 1.6 0 3.2 1.6 4.8l20.8 8c1.6 0 3.2 0 4.8-1.6l6.4-16c0-1.6 1.6-3.2 4.8-1.6 3.2 1.6 11.2 3.2 16 3.2 1.6 0 3.2 1.6 3.2 3.2v17.6c0 1.6 1.6 3.2 3.2 3.2h22.4c1.6 0 3.2-1.6 3.2-3.2V784c0-1.6 1.6-3.2 3.2-3.2 4.8 0 9.6-1.6 16-3.2 1.6 0 3.2 0 4.8 1.6l6.4 16c0 1.6 3.2 3.2 4.8 1.6l20.8-8c1.6-1.6 3.2-3.2 1.6-4.8l-6.4-16c0-1.6 0-3.2 1.6-4.8 4.8-3.2 9.6-6.4 12.8-9.6 1.6-1.6 3.2 0 4.8 0l12.8 12.8c1.6 1.6 3.2 1.6 4.8 0l16-16c1.6-1.6 1.6-3.2 0-4.8l-16-12.8c-1.6-1.6-1.6-3.2 0-4.8 3.2-4.8 6.4-8 8-12.8 1.6-1.6 3.2-1.6 4.8-1.6l16 6.4c1.6 1.6 3.2 0 4.8-1.6l8-19.2c0-1.6 0-3.2-1.6-4.8l-16-6.4c-1.6 0-3.2-1.6-1.6-4.8 1.6-4.8 3.2-9.6 3.2-14.4 0-1.6 1.6-3.2 3.2-3.2h17.6c1.6 0 3.2-1.6 3.2-3.2V640c-1.6-1.6-3.2-3.2-4.8-3.2z m-148.8 100.8c-46.4 0-84.8-38.4-84.8-84.8s38.4-84.8 84.8-84.8 84.8 38.4 84.8 84.8-36.8 84.8-84.8 84.8zM441.64368 121.6c0-1.6-1.6-3.2-3.2-3.2h-14.4c-1.6 0-3.2-1.6-3.2-3.2 0-4.8-1.6-9.6-3.2-12.8 0-1.6 0-3.2 1.6-3.2l12.8-6.4c1.6 0 1.6-1.6 1.6-4.8l-6.4-17.6c0-1.6-3.2-1.6-4.8-1.6l-14.4 6.4c-1.6 0-3.2 0-3.2-1.6-1.6-3.2-4.8-6.4-6.4-9.6-1.6-1.6-1.6-3.2 0-4.8l11.2-11.2c1.6-1.6 1.6-3.2 0-4.8l-14.4-11.2c-1.6-1.6-3.2-1.6-4.8 0l-11.2 11.2c-1.6 1.6-3.2 1.6-3.2 0l-11.2-8c-1.6 0-1.6-1.6-1.6-3.2l6.4-14.4c0-1.6 0-3.2-1.6-3.2L350.44368 8c-1.6 0-3.2 0-4.8 1.6l-6.4 14.4c0 1.6-1.6 1.6-3.2 1.6-3.2-1.6-9.6-1.6-12.8-3.2-1.6 0-3.2-1.6-3.2-3.2V4.8c0-3.2 0-4.8-1.6-4.8h-19.2c-1.6 0-3.2 1.6-3.2 3.2v14.4c0 1.6-1.6 3.2-1.6 3.2-4.8 0-9.6 1.6-12.8 3.2-1.6 0-3.2 0-3.2-1.6L272.04368 8c0-1.6-1.6-1.6-3.2-1.6l-17.6 8c-1.6 0-3.2 3.2-1.6 3.2l3.2 14.4c0 1.6 0 3.2-1.6 3.2l-11.2 8h-3.2l-11.2-11.2c-1.6-1.6-3.2-1.6-4.8 0l-12.8 12.8v4.8l11.2 11.2c1.6 1.6 1.6 3.2 0 3.2-3.2 3.2-4.8 8-8 11.2 0 1.6-1.6 1.6-3.2 1.6l-14.4-6.4c-1.6 0-3.2 0-4.8 1.6l-6.4 17.6c0 1.6 0 3.2 1.6 4.8l14.4 4.8c1.6 0 1.6 1.6 1.6 3.2-1.6 3.2-1.6 9.6-3.2 12.8 0 1.6-1.6 3.2-3.2 3.2h-14.4c-1.6 0-3.2 1.6-3.2 3.2v19.2c0 1.6 1.6 3.2 3.2 3.2h14.4c1.6 0 3.2 1.6 3.2 3.2 0 3.2 1.6 9.6 3.2 12.8 0 1.6 0 3.2-1.6 3.2l-14.4 6.4c-1.6 1.6-1.6 3.2-1.6 4.8l8 17.6c0 1.6 1.6 1.6 4.8 1.6l14.4-6.4c1.6 0 3.2 0 3.2 1.6 1.6 3.2 4.8 8 8 11.2 1.6 1.6 1.6 3.2 0 4.8l-11.2 11.2c-1.6 1.6-1.6 3.2 0 4.8l12.8 12.8c1.6 1.6 3.2 1.6 4.8 0l11.2-11.2c1.6-1.6 3.2-1.6 3.2 0l11.2 8c1.6 1.6 1.6 3.2 1.6 3.2l-6.4 14.4c0 1.6 0 3.2 1.6 4.8l17.6 6.4c1.6 0 3.2 0 3.2-1.6l6.4-14.4c0-1.6 1.6-1.6 3.2-1.6 3.2 0 9.6 1.6 12.8 3.2 1.6 0 3.2 1.6 3.2 3.2v14.4c0 1.6 1.6 3.2 3.2 3.2h19.2c1.6 0 3.2-1.6 3.2-3.2v-14.4c0-1.6 1.6-3.2 3.2-3.2 4.8 0 9.6-1.6 12.8-3.2 1.6 0 3.2 0 3.2 1.6l6.4 14.4c0 1.6 1.6 1.6 4.8 1.6l17.6-8c1.6-1.6 1.6-1.6 1.6-4.8l-6.4-14.4c0-1.6 0-3.2 1.6-3.2 4.8-1.6 8-4.8 11.2-8 1.6-1.6 3.2 0 3.2 0l11.2 11.2c1.6 1.6 3.2 1.6 4.8 0l12.8-12.8c1.6-1.6 1.6-3.2 0-4.8l-11.2-11.2c-1.6-1.6-1.6-3.2 0-4.8 3.2-3.2 4.8-8 8-11.2 0-1.6 1.6-1.6 3.2-1.6l14.4 4.8c1.6 1.6 3.2 0 4.8-1.6l6.4-17.6c0-1.6 0-3.2-1.6-4.8l-14.4-4.8c-1.6 0-1.6-1.6-1.6-3.2 1.6-4.8 1.6-9.6 3.2-12.8 0-1.6 1.6-3.2 3.2-3.2h14.4c1.6 0 3.2-1.6 3.2-3.2V121.6z m-132.8 91.2c-44.8 0-81.6-36.8-81.6-80 0-44.8 35.2-81.6 80-81.6s81.6 36.8 81.6 81.6c1.6 43.2-35.2 80-80 80z" fill="#e6e6e6" p-id="2429"></path><path d="M308.84368 131.2m-35.2 0a35.2 35.2 0 1 0 70.4 0 35.2 35.2 0 1 0-70.4 0Z" fill="#e6e6e6" p-id="2430"></path><path d="M369.64368 430.4c1.6-8 8-24 28.8-24 1.6 0 3.2 1.6 3.2 3.2s-1.6 3.2-3.2 3.2c-19.2 0-20.8 16-20.8 17.6 0 1.6-1.6 3.2-3.2 3.2-3.2 0-4.8-1.6-4.8-3.2zM396.84368 683.2c4.8 4.8 8 11.2 8 22.4 0 1.6-1.6 3.2-3.2 3.2s-3.2-1.6-3.2-3.2c0-8-1.6-12.8-4.8-16-3.2-3.2-9.6-1.6-9.6-1.6-1.6 0-1.6 0-3.2-1.6-1.6 0-1.6-1.6-1.6-3.2 0-4.8 0-8-3.2-9.6-1.6-1.6-4.8-1.6-4.8-1.6-1.6 0-4.8 0-4.8-3.2 0-1.6 0-4.8 3.2-4.8 0 0 6.4-1.6 11.2 1.6 3.2 3.2 4.8 6.4 4.8 11.2 4.8 1.6 8 3.2 11.2 6.4zM364.84368 491.2s-1.6-6.4 1.6-11.2c3.2-3.2 6.4-4.8 11.2-4.8 0-3.2 1.6-6.4 4.8-11.2 4.8-4.8 11.2-8 22.4-8 1.6 0 3.2 1.6 3.2 3.2s-1.6 3.2-3.2 3.2c-8 0-12.8 1.6-16 4.8-3.2 3.2-1.6 8-1.6 8 0 1.6 0 1.6-1.6 3.2 0 1.6-1.6 1.6-3.2 1.6-4.8 0-8 0-9.6 3.2-1.6 1.6-1.6 4.8-1.6 4.8 0 1.6 0 4.8-3.2 4.8h-1.6c0 1.6-1.6 0-1.6-1.6zM364.84368 556.8s-1.6-14.4 9.6-24c9.6-9.6 25.6-12.8 48-9.6 1.6 0 3.2 1.6 3.2 4.8 0 1.6-1.6 3.2-4.8 3.2-19.2-3.2-33.6 0-41.6 8s-8 17.6-8 17.6c0 1.6-1.6 3.2-3.2 4.8-1.6 0-3.2-1.6-3.2-4.8zM417.64368 614.4c-4.8-3.2-9.6-4.8-17.6-1.6-1.6 6.4-4.8 11.2-8 16-8 9.6-19.2 9.6-22.4 9.6H368.04368c-1.6 0-3.2-1.6-3.2-4.8 0-1.6 1.6-3.2 4.8-3.2 0 0 9.6 0 17.6-8 8-8 9.6-22.4 8-41.6 0-1.6 1.6-4.8 3.2-4.8s4.8 1.6 4.8 3.2c1.6 9.6 1.6 17.6 0 24 8-1.6 14.4 0 20.8 4.8 12.8 11.2 12.8 33.6 12.8 35.2 0 1.6-1.6 3.2-3.2 3.2s-3.2-1.6-3.2-4.8c-3.2 1.6-3.2-19.2-12.8-27.2zM404.84368 435.2c0-1.6 1.6-3.2 4.8-3.2 0 0 28.8 3.2 28.8 33.6 0 1.6-1.6 3.2-3.2 3.2s-3.2-1.6-3.2-4.8c0-24-20.8-27.2-22.4-27.2-3.2 1.6-4.8 0-4.8-1.6zM454.44368 708.8c0 8-6.4 24-27.2 25.6-1.6 0-3.2-1.6-3.2-3.2s1.6-3.2 3.2-3.2c19.2-1.6 20.8-17.6 20.8-17.6 0-1.6 1.6-3.2 4.8-3.2 0-1.6 1.6 0 1.6 1.6zM438.44368 496s8-1.6 14.4 3.2c4.8 3.2 6.4 8 6.4 14.4 3.2 0 9.6 1.6 14.4 4.8 6.4 4.8 9.6 14.4 9.6 27.2 0 1.6-1.6 3.2-3.2 3.2s-3.2-1.6-3.2-3.2c0-9.6-1.6-17.6-6.4-20.8-4.8-4.8-12.8-3.2-12.8-3.2-1.6 0-3.2 0-3.2-1.6 0 0-1.6-1.6-1.6-3.2 0-6.4-1.6-11.2-3.2-12.8-3.2-1.6-8-1.6-8-1.6-1.6 0-4.8 0-4.8-3.2-1.6 0-1.6-1.6 1.6-3.2zM484.84368 638.4s1.6 6.4-1.6 11.2c-3.2 4.8-6.4 6.4-12.8 6.4 0 3.2-1.6 6.4-4.8 11.2-4.8 4.8-11.2 8-22.4 8-1.6 0-3.2-1.6-3.2-3.2s1.6-3.2 3.2-3.2c8 0 12.8-1.6 16-4.8 3.2-3.2 1.6-8 1.6-9.6v-3.2c1.6-1.6 1.6-1.6 3.2-1.6 4.8 0 8-1.6 9.6-3.2 1.6-1.6 0-4.8 0-4.8 0-1.6 1.6-4.8 3.2-4.8 4.8-1.6 8 0 8 1.6zM486.44368 587.2c0 1.6-1.6 3.2-4.8 3.2-12.8-1.6-20.8 0-27.2 4.8-4.8 4.8-4.8 11.2-4.8 11.2 0 1.6-1.6 3.2-3.2 4.8-1.6 0-3.2-1.6-3.2-3.2 0 0 0-9.6 6.4-17.6 3.2-3.2 6.4-4.8 9.6-4.8 0-4.8 0-8-1.6-9.6-4.8-4.8-14.4-6.4-19.2-6.4-1.6 0-3.2-1.6-3.2-3.2s1.6-3.2 3.2-4.8c0 0 17.6 0 24 8 3.2 3.2 4.8 8 3.2 12.8h14.4c4.8 1.6 6.4 3.2 6.4 4.8z" fill="#e6e6e6" p-id="2431"></path><path d="M656.04368 534.4c-6.4 4.8-14.4 8-24 8-4.8 0-8 0-12.8-1.6l-32-12.8c-12.8-6.4-20.8-17.6-24-30.4-3.2 1.6-6.4 1.6-9.6 1.6-9.6 0-19.2-3.2-27.2-11.2L504.04368 464c-6.4-6.4-11.2-16-11.2-27.2 0-3.2 0-6.4 1.6-9.6-12.8-1.6-24-9.6-30.4-22.4l-12.8-30.4c-4.8-12.8-3.2-27.2 4.8-38.4-11.2-6.4-19.2-19.2-19.2-32v-9.6c-9.6-1.6-17.6-4.8-25.6-6.4-38.4-8-78.4-11.2-118.4-4.8-73.6 12.8-158.4 52.8-203.2 168-14.4 35.2-14.4 73.6-4.8 108.8 3.2 9.6 1.6 20.8-9.6 30.4-12.8 9.6-24 22.4-32 35.2L1.64368 684.8s-9.6 25.6 17.6 36.8c0 0 27.2 6.4 27.2 41.6 0 0-16 20.8 14.4 41.6 0 0-27.2 11.2 0 49.6 0 0-27.2 78.4 49.6 105.6 0 0 92.8 6.4 121.6 64h340.8c-4.8-43.2-12.8-160 28.8-233.6 0 0 60.8-118.4 65.6-240v-4.8c-4.8-1.6-8-6.4-11.2-11.2zM294.44368 723.2s-80 78.4-124.8-32c0 0-51.2-19.2-19.2-80 0 0-33.6-16-1.6-48 0 0-25.6-38.4 30.4-70.4 0 0-20.8-56 35.2-68.8 0 0-1.6-41.6 38.4-46.4 0 0 48-56 68.8 6.4v321.6c3.2 0 6.4 25.6-27.2 17.6z m200-32c-44.8 110.4-124.8 32-124.8 32-33.6 8-30.4-16-30.4-16V384c22.4-62.4 68.8-6.4 68.8-6.4 40 4.8 38.4 46.4 38.4 46.4 56 12.8 35.2 68.8 35.2 68.8 56 32 30.4 70.4 30.4 70.4 33.6 32-1.6 48-1.6 48 35.2 60.8-16 80-16 80z m-198.4-60.8s-9.6 0-17.6-8c-8-8-9.6-22.4-8-41.6 0-1.6-1.6-4.8-3.2-4.8s-4.8 1.6-4.8 3.2c-1.6 9.6-1.6 17.6 0 24-8-1.6-14.4 0-20.8 4.8-12.8 11.2-12.8 33.6-12.8 35.2 0 1.6 1.6 3.2 3.2 3.2s3.2-1.6 3.2-4.8c0-6.4 1.6-22.4 9.6-28.8 4.8-3.2 9.6-4.8 17.6-1.6 1.6 6.4 4.8 11.2 8 16 8 9.6 19.2 9.6 22.4 9.6h1.6c1.6 0 3.2-1.6 3.2-4.8 1.6 0 0-1.6-1.6-1.6z m-52.8-107.2c-1.6 0-3.2 1.6-3.2 4.8 0 1.6 1.6 3.2 4.8 3.2 19.2-3.2 33.6 0 41.6 8s8 17.6 8 17.6c0 1.6 1.6 3.2 3.2 4.8 1.6 0 3.2-1.6 3.2-3.2 0 0 1.6-14.4-9.6-24s-27.2-12.8-48-11.2z m12.8-64c0 1.6 1.6 3.2 3.2 3.2 8 0 12.8 1.6 16 4.8 3.2 3.2 1.6 9.6 1.6 9.6v3.2c0 1.6 1.6 1.6 3.2 1.6 4.8 0 8 0 9.6 3.2 1.6 1.6 0 4.8 0 4.8 0 1.6 0 4.8 3.2 4.8h1.6c1.6 0 3.2-1.6 3.2-3.2 0 0 1.6-6.4-1.6-11.2-3.2-3.2-6.4-4.8-11.2-4.8 0-3.2-1.6-6.4-4.8-11.2-4.8-4.8-11.2-8-22.4-8 0-1.6-1.6 1.6-1.6 3.2z m38.4 206.4s-6.4-1.6-11.2 1.6c-3.2 3.2-4.8 6.4-4.8 11.2-3.2 0-6.4 1.6-11.2 4.8-4.8 4.8-8 11.2-8 22.4 0 1.6 1.6 3.2 3.2 3.2s3.2-1.6 3.2-3.2c0-8 1.6-12.8 4.8-16 3.2-3.2 8-1.6 8-1.6 1.6 0 1.6 0 3.2-1.6 0 0 1.6-1.6 1.6-3.2 0-4.8 0-8 3.2-9.6 1.6-1.6 4.8-1.6 4.8-1.6 1.6 0 4.8 0 4.8-3.2 1.6-1.6 0-3.2-1.6-3.2z m-28.8-252.8c19.2 0 20.8 16 20.8 17.6 0 1.6 1.6 3.2 3.2 3.2s3.2-1.6 3.2-4.8c-1.6-8-8-24-28.8-24-1.6 0-3.2 1.6-3.2 3.2 1.6 3.2 3.2 4.8 4.8 4.8z m-35.2 56c1.6 0 3.2-1.6 3.2-4.8 0-24 20.8-27.2 22.4-27.2 1.6 0 3.2-1.6 3.2-4.8 0-1.6-1.6-3.2-4.8-3.2 0 0-28.8 3.2-28.8 33.6 1.6 4.8 3.2 6.4 4.8 6.4z m8 259.2c-19.2-1.6-20.8-17.6-20.8-17.6 0-1.6-1.6-3.2-4.8-3.2-1.6 0-3.2 1.6-3.2 4.8 0 8 6.4 24 27.2 25.6 1.6 0 3.2-1.6 3.2-3.2 1.6-4.8 0-6.4-1.6-6.4z m-52.8-177.6c1.6 0 3.2-1.6 3.2-3.2 0-9.6 1.6-17.6 6.4-20.8 4.8-4.8 12.8-3.2 12.8-3.2 1.6 0 1.6 0 3.2-1.6 1.6 0 1.6-1.6 1.6-3.2 0-6.4 1.6-11.2 3.2-12.8 3.2-1.6 8-1.6 8-1.6 1.6 0 4.8 0 4.8-3.2 0-1.6 0-4.8-3.2-4.8 0 0-8-1.6-14.4 3.2-4.8 3.2-6.4 8-6.4 14.4-3.2 0-9.6 1.6-14.4 4.8-6.4 4.8-9.6 14.4-9.6 27.2 1.6 3.2 3.2 4.8 4.8 4.8z m32 60.8c1.6 0 4.8-1.6 4.8-3.2 0 0 0-9.6-6.4-17.6-3.2-3.2-6.4-4.8-9.6-4.8-1.6-4.8 0-8 1.6-9.6 4.8-4.8 14.4-6.4 17.6-6.4 1.6 0 3.2-1.6 3.2-3.2s-1.6-3.2-3.2-4.8c-1.6 0-17.6 0-24 8-3.2 3.2-4.8 8-3.2 12.8h-14.4c-1.6 0-3.2 1.6-3.2 4.8 0 1.6 1.6 3.2 4.8 3.2 12.8-1.6 20.8 0 27.2 4.8 4.8 4.8 4.8 11.2 4.8 11.2-4.8 3.2-3.2 4.8 0 4.8z m-14.4 56c-8 0-12.8-1.6-16-4.8-3.2-3.2-1.6-9.6-1.6-9.6 0-1.6 0-1.6-1.6-3.2 0-1.6-1.6-1.6-3.2-1.6-4.8 0-8-1.6-9.6-3.2-1.6-1.6-1.6-4.8-1.6-4.8 0-1.6 0-4.8-3.2-4.8-1.6 0-4.8 0-4.8 3.2 0 0-1.6 6.4 1.6 11.2 1.6 3.2 6.4 4.8 11.2 4.8 0 3.2 1.6 6.4 4.8 11.2 4.8 4.8 11.2 8 22.4 8 1.6 0 3.2-1.6 3.2-3.2 3.2-1.6 1.6-3.2-1.6-3.2zM308.84368 64c-36.8 0-67.2 30.4-67.2 67.2 0 36.8 30.4 67.2 67.2 67.2 36.8 0 67.2-30.4 67.2-67.2 0-36.8-30.4-67.2-67.2-67.2z m0 115.2c-27.2 0-48-20.8-48-48s20.8-48 48-48 48 20.8 48 48-20.8 48-48 48z" fill="#e6e6e6" p-id="2432"></path></svg>