<?xml version="1.0" standalone="no"?><!DOCTYPE svg PUBLIC "-//W3C//DTD SVG 1.1//EN" "http://www.w3.org/Graphics/SVG/1.1/DTD/svg11.dtd"><svg t="1743066708559" class="icon" viewBox="0 0 1024 1024" version="1.1" xmlns="http://www.w3.org/2000/svg" p-id="12597" xmlns:xlink="http://www.w3.org/1999/xlink" width="200" height="200"><path d="M512.64 223.04a139.648 139.648 0 0 1-275.84 31.296H64.64V190.08h172.672a139.712 139.712 0 0 1 275.328 32.96z m-63.424 0a76.224 76.224 0 1 0-152.512 0 76.224 76.224 0 0 0 152.512 0zM493.184 479.232H64.64v64.256H492.8a139.712 139.712 0 1 0 0.32-64.256zM705.28 512a76.224 76.224 0 1 1-152.512 0 76.224 76.224 0 0 1 152.512 0zM959.424 479.232H835.84v64.256h123.584V479.232zM64.576 768h172.672a139.712 139.712 0 1 1-0.384 64.192H64.576V768z m308.352 109.184a76.224 76.224 0 1 0 0-152.512 76.224 76.224 0 0 0 0 152.512zM959.424 768H576.64v64.192h382.848V768zM959.424 190.08H576.64v64.256h382.848V190.08z" fill="#e6e6e6" p-id="12598"></path></svg>