<?xml version="1.0" standalone="no"?><!DOCTYPE svg PUBLIC "-//W3C//DTD SVG 1.1//EN" "http://www.w3.org/Graphics/SVG/1.1/DTD/svg11.dtd"><svg t="1743066567714" class="icon" viewBox="0 0 1066 1024" version="1.1" xmlns="http://www.w3.org/2000/svg" p-id="7712" xmlns:xlink="http://www.w3.org/1999/xlink" width="208.203125" height="200"><path d="M737.706667 120.106667a149.418667 149.418667 0 0 0-143.146667 106.666666H240.896a183.722667 183.722667 0 1 0 0 367.445334h294.485333a278.741333 278.741333 0 0 1 88.917334-85.333334H240.896a98.389333 98.389333 0 0 1 0-196.778666h353.664a149.418667 149.418667 0 0 0 292.48-42.666667 149.333333 149.333333 0 0 0-149.333333-149.333333z m-64 149.333333a64 64 0 1 1 128 0 64 64 0 0 1-128 0zM261.546667 673.194667a149.376 149.376 0 0 1 146.432 120.021333h85.674666c5.12 30.421333 15.232 59.136 29.44 85.333333H399.957333a149.376 149.376 0 1 1-138.453333-205.354666z m-64 149.333333a64 64 0 0 0 125.653333 17.152v-34.304a64 64 0 0 0-125.653333 17.152zM925.44 767.573333l45.653333 35.413334c3.84 3.413333 5.12 8.96 2.56 13.653333l-42.666666 73.813333c-2.986667 4.693333-8.533333 6.4-13.226667 4.693334l-53.333333-21.333334c-10.666667 8.533333-23.04 15.36-35.84 20.906667l-8.106667 56.32c-0.853333 5.12-5.546667 8.96-10.666667 8.96h-85.333333c-5.546667 0-9.813333-3.84-10.666667-8.96l-8.106666-56.32c-13.226667-5.12-25.173333-12.373333-36.266667-20.906667l-52.906667 21.333334c-5.12 1.706667-10.666667 0-13.226666-4.693334l-42.666667-73.813333a11.093333 11.093333 0 0 1 2.56-13.653333l45.226667-35.413334a166.741333 166.741333 0 0 1 0-41.813333l-45.226667-35.413333a10.581333 10.581333 0 0 1-2.56-13.653334l42.666667-73.813333c2.986667-4.693333 8.533333-6.4 13.226666-4.693333l52.906667 21.333333c11.093333-8.533333 23.466667-15.36 36.266667-20.906667l8.106666-56.32c0.853333-5.12 5.546667-8.96 10.666667-8.96h85.333333c5.12 0 9.813333 3.84 10.24 8.96l8.106667 56.32c13.226667 5.12 25.173333 12.373333 36.266667 20.906667l52.906666-21.333333c5.12-1.706667 10.666667 0 13.226667 4.693333l42.666667 73.813333c2.56 4.693333 1.28 10.24-2.56 13.653334l-45.226667 35.413333c1.28 6.826667 1.706667 13.653333 1.706667 20.906667 0 7.253333-0.853333 14.08-1.706667 20.906666z m-222.293333-20.906666c0 35.413333 28.586667 64 64 64s64-28.586667 64-64-28.586667-64-64-64-64 28.586667-64 64z" p-id="7713" fill="#e6e6e6"></path></svg>