<?xml version="1.0" standalone="no"?><!DOCTYPE svg PUBLIC "-//W3C//DTD SVG 1.1//EN" "http://www.w3.org/Graphics/SVG/1.1/DTD/svg11.dtd"><svg t="1745163376228" class="icon" viewBox="0 0 1024 1024" version="1.1" xmlns="http://www.w3.org/2000/svg" p-id="2813" xmlns:xlink="http://www.w3.org/1999/xlink" width="30" height="30"><path d="M938.016 697.504c2.336-4.864 2.336-9.504 4.864-14.336 57.312-225.024-79.008-488.192-313.504-626.848 102.816 138.656 143.488 303.84 107.648 452.192a222.176 222.176 0 0 1-12 38.304 236.096 236.096 0 0 1-19.168-12S473.824 391.328 224.992 139.968c-7.168-7.168 134.016 200.992 291.84 366.176-74.144-43.136-284.672-193.824-416.352-315.808 14.336 26.144 36 52.48 57.504 78.848 109.984 141.152 253.664 313.472 425.856 444.96-122.016 74.336-291.84 79.008-464.16 0-43.008-18.976-79.008-43.008-119.68-71.648 71.84 112.48 184.32 215.296 318.336 270.336 160.352 69.472 322.976 64.64 440.16 0h2.528c4.64-2.336 9.504-4.864 14.336-9.504 57.344-28.832 169.824-59.808 231.968 59.808 16.864 33.504 47.84-121.984-69.344-265.632z" p-id="2814" fill="#fff"></path></svg>