<?xml version="1.0" encoding="UTF-8" ?>
<!DOCTYPE svg PUBLIC "-//W3C//DTD SVG 1.1//EN" "http://www.w3.org/Graphics/SVG/1.1/DTD/svg11.dtd">
<svg width="30" height="30" viewBox="0 0 203 200" version="1.1" xmlns="http://www.w3.org/2000/svg">
<g id="#fffefeff">
<path fill="#fffefe" opacity="1.00" d=" M 190.70 0.00 L 196.65 0.00 C 197.86 1.62 200.24 2.76 200.03 5.07 C 200.44 8.22 199.23 11.18 198.01 14.00 C 196.40 17.57 195.63 21.46 193.95 24.99 C 192.01 28.61 190.64 32.48 189.37 36.37 C 179.42 64.43 169.45 92.49 159.52 120.56 C 157.54 126.26 155.18 131.86 153.83 137.76 C 147.44 157.44 139.97 176.74 133.35 196.33 C 132.91 198.23 130.96 198.96 129.55 200.00 L 124.44 200.00 C 122.70 198.92 120.78 197.81 120.36 195.62 C 110.77 166.58 100.90 137.63 91.45 108.55 C 84.20 106.25 76.91 104.02 69.86 101.15 C 57.73 96.89 45.36 93.31 33.38 88.63 C 24.88 85.77 16.37 82.99 7.88 80.11 C 5.00 79.18 2.24 77.83 0.00 75.77 L 0.00 69.40 C 1.29 68.23 2.41 66.68 4.11 66.10 C 58.81 46.76 113.54 27.50 168.29 8.29 C 175.64 5.20 183.54 3.56 190.70 0.00 M 39.38 68.38 C 35.35 69.30 31.79 71.63 27.71 72.24 C 28.11 72.61 28.93 73.33 29.33 73.70 C 48.15 79.76 66.85 86.18 85.62 92.37 C 91.01 94.30 96.62 95.66 101.75 98.25 C 102.53 100.13 103.54 101.91 104.14 103.86 C 111.47 126.15 119.08 148.35 126.31 170.67 C 126.67 171.08 127.39 171.89 127.74 172.29 C 128.21 168.15 130.46 164.56 131.64 160.63 C 132.89 156.89 134.06 153.11 135.40 149.40 C 138.59 142.45 139.87 134.77 143.41 127.97 C 145.35 123.83 146.62 119.43 148.18 115.15 C 157.49 88.81 166.76 62.46 176.07 36.12 C 176.40 35.02 176.66 33.91 176.88 32.78 C 178.43 27.46 180.52 22.27 182.26 16.99 C 134.62 34.10 87.01 51.27 39.38 68.38 Z" />
</g>
<g id="#f48231ff">
<path fill="#f48231" opacity="1.00" d=" M 193.95 24.99 C 195.82 25.02 197.73 24.87 199.59 25.23 C 200.80 26.18 201.88 27.28 203.00 28.34 L 203.00 34.39 C 198.92 43.50 195.96 53.06 192.38 62.37 C 184.28 84.59 176.05 106.76 168.01 129.00 C 166.61 132.18 166.19 136.00 163.33 138.31 C 160.93 141.27 156.17 140.39 153.83 137.76 C 155.18 131.86 157.54 126.26 159.52 120.56 C 169.45 92.49 179.42 64.43 189.37 36.37 C 190.64 32.48 192.01 28.61 193.95 24.99 Z" />
<path fill="#f48231" opacity="1.00" d=" M 94.13 67.14 C 121.70 55.65 149.21 44.03 176.88 32.78 C 176.66 33.91 176.40 35.02 176.07 36.12 C 166.76 62.46 157.49 88.81 148.18 115.15 C 146.62 119.43 145.35 123.83 143.41 127.97 C 135.74 120.52 128.70 112.35 120.26 105.73 C 110.39 95.92 100.55 86.07 90.72 76.20 C 88.59 72.96 90.34 68.27 94.13 67.14 Z" />
</g>
</svg>
